<?xml version="1.0" encoding="UTF-8" standalone="no"?>
<!-- Created with Inkscape (http://www.inkscape.org/) -->

<svg
   width="260.16135"
   height="260.83804"
   viewBox="0 0 260.16135 260.83804"
   version="1.1"
   id="svg5"
   xmlns="http://www.w3.org/2000/svg"
   xmlns:svg="http://www.w3.org/2000/svg">
  <defs
     id="defs2" />
  <g
     id="layer1"
     style="display:inline"
     transform="translate(1.6929513,3.6327713)">
    <path
       id="path636"
       style="fill:#ffffff;fill-rule:evenodd;stroke:#000000;stroke-width:10.845;stroke-dasharray:none"
       d="m 253.04589,126.78625 c 0,30.34295 -27.4592,48.78861 -45.39167,70.43892 -22.86595,27.60662 -40.68051,54.5576 -79.26651,54.5576 -37.023015,0 -48.930103,-21.97227 -71.761636,-47.66929 C 37.000828,182.02515 3.7295488,158.69642 3.7295488,126.78625 3.7295488,57.752578 59.540912,1.7897275 128.38771,1.7897288 c 68.84681,0 124.65818,55.9628502 124.65818,124.9965212 z" />
    <ellipse
       style="fill:#000000;fill-opacity:1;fill-rule:evenodd;stroke-width:1.1169;stroke-dasharray:none"
       id="path1920"
       cx="90.902298"
       cy="87.737427"
       rx="26.16729"
       ry="40.462025" />
    <ellipse
       style="display:inline;fill:#000000;fill-opacity:1;fill-rule:evenodd;stroke-width:1.1169;stroke-dasharray:none"
       id="path1920-7"
       cx="170.5"
       cy="87.75"
       rx="26.16729"
       ry="40.462025" />
    <ellipse
       style="display:inline;fill:#000000;fill-opacity:1;fill-rule:evenodd;stroke-width:0.34864;stroke-dasharray:none"
       id="path1920-8"
       cx="181.07027"
       cy="21.314915"
       rx="7.9821935"
       ry="12.924304"
       transform="matrix(0.70909723,0.70511071,-0.43424023,0.9007971,0,0)" />
    <ellipse
       style="display:inline;fill:#000000;fill-opacity:1;fill-rule:evenodd;stroke-width:0.34864;stroke-dasharray:none"
       id="path1920-8-9"
       cx="-63.469017"
       cy="212.67294"
       rx="7.9821935"
       ry="12.924304"
       transform="matrix(-0.70909723,0.70511071,0.43424023,0.9007971,0,0)" />
    <rect
       style="fill:#000000;fill-opacity:1;stroke:#000000;stroke-width:1.47465;stroke-dasharray:none;stroke-opacity:1"
       id="rect36300"
       width="17.432159"
       height="53.634377"
       x="90.804276"
       y="192.29736" />
    <rect
       style="display:inline;fill:#000000;fill-opacity:1;stroke:#000000;stroke-width:1.34854;stroke-dasharray:none;stroke-opacity:1"
       id="rect36300-2"
       width="14.681727"
       height="53.255451"
       x="150.4427"
       y="192.30574" />
    <rect
       style="display:inline;fill:#000000;fill-opacity:1;stroke:#000000;stroke-width:1.38232;stroke-dasharray:none;stroke-opacity:1"
       id="rect36300-2-2"
       width="16.69585"
       height="49.206757"
       x="121.23549"
       y="203.30959" />
  </g>
</svg>
