<?xml version="1.0" encoding="UTF-8" standalone="no"?>
<svg
   version="1.0"
   width="1800"
   height="600"
   viewBox="0 0 1800 600"
   preserveAspectRatio="xMidYMid"
   id="svg79"
   sodipodi:docname="sheet.svg"
   inkscape:version="1.4.3 (0d15f75, 2025-12-25)"
   xmlns:inkscape="http://www.inkscape.org/namespaces/inkscape"
   xmlns:sodipodi="http://sodipodi.sourceforge.net/DTD/sodipodi-0.dtd"
   xmlns="http://www.w3.org/2000/svg"
   xmlns:svg="http://www.w3.org/2000/svg">
  <defs
     id="defs83" />
  <sodipodi:namedview
     id="namedview81"
     pagecolor="#505050"
     bordercolor="#ffffff"
     borderopacity="1"
     inkscape:showpageshadow="0"
     inkscape:pageopacity="0"
     inkscape:pagecheckerboard="1"
     inkscape:deskcolor="#505050"
     inkscape:document-units="px"
     showgrid="false"
     inkscape:zoom="1"
     inkscape:cx="907.5"
     inkscape:cy="223.5"
     inkscape:window-width="1920"
     inkscape:window-height="1017"
     inkscape:window-x="-8"
     inkscape:window-y="-8"
     inkscape:window-maximized="1"
     inkscape:current-layer="svg79" />
  <metadata
     id="metadata63">
Created by potrace 1.15, written by Peter Selinger 2001-2017
</metadata>
  <path
     d="m 1643.5489,6.5787969 c -0.4494,0.3838795 -0.674,2.3992526 -0.674,5.9981391 v 5.422322 h -6.4046 c -4.7192,0 -6.517,0.191941 -7.0226,0.671792 -0.4495,0.431869 -0.6181,3.358965 -0.5057,9.453079 l 0.1687,8.82926 6.9102,0.143958 6.854,0.143955 v 4.750531 4.798515 h -22.1913 c -14.2698,0 -22.1913,0.191946 -22.1913,0.479852 0,0.239929 3.3146,10.364791 7.3597,22.40907 4.0448,12.092252 8.8765,26.63176 10.7304,32.29399 1.91,5.66227 3.6517,10.60473 3.9889,10.89264 0.2808,0.3359 1.4606,0.62382 2.6404,0.62382 h 2.1348 l -0.2808,3.02307 c -3.3311,5.49862 -5.1536,8.09782 -6.0674,13.48382 -0.5057,3.45491 -0.1124,4.70253 2.2472,6.95783 l 1.9663,1.82345 -3.1461,0.2879 c -11.3485,1.00769 -13.4271,13.57981 -2.9213,17.37064 1.2359,0.38388 3.7639,0.71977 6.0112,0.71977 3.5956,0 4.045,0.096 4.8876,1.19963 3.9328,5.08643 4.3823,20.6816 1.2923,41.50716 -2.9776,20.34569 -8.9889,41.55514 -13.4833,47.74522 l -1.7979,2.39927 0.3935,8.01352 0.3932,8.01353 -2.1348,0.76775 c -2.9776,1.05567 -5.0563,2.87911 -6.18,5.47031 -0.5056,1.19962 -1.6854,3.35895 -2.5281,4.79852 -2.7527,4.51059 -1.9101,9.30912 2.3596,13.09994 l 2.5843,2.30329 h -4.045 c -2.7528,0 -4.2135,0.19194 -4.663,0.67178 -0.4495,0.47985 111.5742,0 111.0685,-0.2879 -0.3932,-0.19194 -2.3596,-0.38388 -4.3821,-0.38388 h -3.6516 l 1.8539,-1.00769 c 3.7641,-2.06335 5.6181,-8.20547 3.7641,-12.42816 -0.5057,-1.19963 -1.1237,-3.11905 -1.3483,-4.31865 -0.5057,-2.54322 -1.6856,-4.60658 -3.5393,-6.09412 -1.4608,-1.19963 -4.944,-2.54323 -6.5169,-2.54323 -0.9552,0 -1.1237,-0.52783 -1.4608,-4.41463 -0.1685,-2.39925 -0.3371,-6.04612 -0.3371,-8.10948 0,-3.5509 -0.056,-3.74285 -1.8539,-5.27838 -3.5394,-3.02305 -7.472,-13.14792 -9.9439,-25.57608 -5.2248,-26.1519 -4.8877,-54.84703 0.7303,-63.38839 l 1.2921,-1.91941 5.2809,-0.23992 c 5.8428,-0.28792 7.9776,-0.95972 10.2811,-3.35898 2.809,-2.83111 3.1461,-7.14977 0.8426,-10.46075 -1.4044,-1.96738 -5.1685,-3.8388 -8.5955,-4.2227 -2.5844,-0.33588 -2.6405,-0.33588 -1.4607,-1.10365 2.4719,-1.63149 3.427,-3.45494 3.427,-6.8139 0,-2.49522 -0.2808,-3.50291 -1.236,-4.75052 -1.178,-4.53308 -8.3914,-12.94134 -4.2696,-12.95598 0.8988,0 1.7415,-0.3359 2.0224,-0.86373 0.5057,-0.81575 22.0227,-64.779966 22.0227,-65.499748 0,-0.191937 -9.7192,-0.335894 -21.6294,-0.335894 h -21.6294 v -4.798515 -4.798514 h 6.0675 c 3.9887,0 6.2921,-0.191939 6.7416,-0.575825 0.955,-0.815748 0.955,-17.226662 0,-18.04241 -0.4495,-0.383885 -2.7529,-0.575826 -6.7416,-0.575826 h -6.0675 v -5.422322 c 0,-3.5988865 -0.2248,-5.6142596 -0.6742,-5.9981391 -0.5056,-0.4318698 -4.2698,-0.5758265 -13.3709,-0.5758265 -9.1012,0 -12.8653,0.1439567 -13.371,0.5758265 z"
     id="path243"
     style="fill:#d1bba3;fill-opacity:1;stroke:#000000;stroke-width:8.47102;stroke-linecap:round;stroke-linejoin:bevel;stroke-dasharray:none;stroke-opacity:1;paint-order:fill markers stroke"
     sodipodi:nodetypes="sscscccccccsscccscccccccscccccccccccsscscccccscscccccccccscccsscccsssscsssss" />
  <path
     d="m 1345.8752,8.109345 c -3.4981,1.0637682 -5.4063,2.233913 -7.4418,4.627389 -2.0353,2.340287 -3.4982,6.701731 -2.862,8.776077 l 0.3815,1.276521 h -25.5695 -25.5693 l 0.3818,1.702026 c 1.1448,4.999706 24.4882,71.963845 25.1241,72.017029 0.3816,0.05324 1.9081,0.106378 3.3074,0.159561 2.2898,0.05324 2.5442,0.159571 1.7809,0.904203 -5.3188,10.830939 -5.3699,4.175279 -7.3781,17.924479 -0.3817,3.77638 0.636,6.16984 3.4346,8.13783 l 1.5902,1.11695 -3.6256,0.31911 c -6.6784,0.58509 -11.1307,4.46786 -11.1307,9.62712 0,2.97856 0.8904,4.94653 3.0529,6.86128 2.7987,2.44667 5.1522,3.24452 10.8765,3.56364 5.1522,0.26595 5.47,0.31913 6.4877,1.86159 6.1696,8.93562 2.9259,48.295 -6.4241,79.51658 -3.0529,10.21215 -6.9965,18.93505 -8.9048,19.94562 -0.4453,0.21274 -0.6359,3.72319 -0.6359,9.94625 l 0.1271,9.57389 -2.4805,0.9574 c -2.926,1.11695 -6.297,4.30824 -6.9329,6.59534 -0.2546,0.90419 -1.1452,2.55304 -2.0354,3.67 -1.2723,1.54246 -1.7174,2.97855 -1.9083,5.53158 -0.318,4.30826 0.9541,7.34 4.4523,10.21216 79.5724,0.93674 112.3905,0.58508 112.3905,0.58508 2.7351,-2.34028 4.7068,-7.07406 4.2616,-10.26535 -0.1908,-1.43607 -0.7633,-3.29768 -1.3359,-4.20187 -0.5087,-0.9042 -0.9539,-2.39348 -0.9539,-3.2445 0,-2.39346 -2.3533,-6.06346 -4.8976,-7.65911 -1.2085,-0.79786 -3.4983,-1.70205 -5.1521,-2.02116 l -2.9894,-0.63826 -0.1908,-8.66971 -0.1908,-8.72287 -2.4806,-2.28711 c -1.3358,-1.27653 -2.8623,-3.3509 -3.3711,-4.57421 -0.5725,-1.22333 -1.7174,-3.98912 -2.6079,-6.11666 -4.6432,-10.79724 -8.2687,-31.96619 -9.0954,-52.23096 -0.5725,-16.48841 1.2084,-29.46635 4.9612,-35.15749 l 1.5265,-2.34028 6.0425,-0.26595 c 6.2968,-0.31912 8.7138,-1.01059 11.2582,-3.29769 1.9079,-1.70201 2.735,-3.77638 2.735,-7.02087 0,-4.99968 -4.4525,-8.93564 -11.1309,-9.68029 l -2.9258,-0.3723 1.9717,-1.70205 c 2.417,-2.07431 3.3074,-4.57417 2.7986,-7.97824 -1.2036,-10.05469 -9.9323,-18.294373 -7.3782,-18.456355 2.8622,-0.106388 3.1801,-0.159572 3.6254,-0.478704 0.6362,-0.585067 25.0605,-72.49572 24.7426,-72.921226 -0.1909,-0.212754 -11.449,-0.425506 -24.997,-0.425506 h -24.6787 l -0.064,-2.872171 c -0.065,-8.563326 -10.4309,-14.6267986 -19.9717,-11.8078161 z"
     id="path245"
     style="fill:#d1bba3;fill-opacity:1;stroke:#000000;stroke-width:8.53235;stroke-linecap:round;stroke-linejoin:bevel;stroke-dasharray:none;stroke-opacity:1;paint-order:fill markers stroke"
     sodipodi:nodetypes="scccccccccccccscccccccccccccccscccccccccccccscccccccsccss" />
  <path
     d="m 743.58795,17.150467 c -7.53107,1.080835 -14.83396,4.835299 -19.2461,9.727487 -4.10787,4.72152 -5.32503,8.248447 -4.94467,14.335233 0.30431,5.461045 1.74967,8.760428 5.62929,12.913091 l 1.82573,1.991009 -3.11891,2.559857 c -13.16038,10.580767 -19.93076,25.71241 -19.93076,44.598516 0,13.02685 2.66253,22.69747 9.28074,33.56265 2.20604,3.5838 2.35821,4.0389 1.14107,4.55087 -3.27107,1.47902 -5.17288,2.90117 -6.08574,4.60776 -1.36926,2.44607 -1.36926,8.36222 0,10.41009 1.06504,1.53594 1.06504,1.59284 -1.44533,2.27546 -1.36929,0.3413 -3.57538,1.53592 -4.79252,2.55985 -4.71644,4.03889 -3.65144,12.79933 1.82571,15.52985 l 2.13001,1.02394 -4.71642,0.34131 c -8.0636,0.56888 -12.78003,3.98201 -13.69289,9.95503 -0.45643,3.35626 0.98893,6.14366 4.48822,8.36222 3.65142,2.38919 7.37894,3.2425 13.84501,3.2425 4.71645,0 5.09678,0.11369 6.69431,1.76345 2.05392,2.16169 3.72749,6.25746 3.72749,9.15863 0,6.0299 -6.46607,14.56277 -16.73573,22.1286 l -6.61823,4.8353 0.38037,9.6706 0.38036,9.72749 -3.57536,1.25148 c -3.95571,1.47903 -6.61822,3.81134 -8.13965,7.16762 -0.60858,1.2515 -1.67356,2.90118 -2.35821,3.69757 -0.76074,0.79641 -1.74966,2.90117 -2.28215,4.66464 -1.29321,4.494 0.53249,12.05619 5.09678,15.46932 0,0 134.7165,-0.79275 131.14727,-0.79275 l 2.81464,-1.82036 c 1.5975,-1.02394 3.42322,-2.90117 4.18394,-4.15267 1.67356,-2.73053 1.82572,-7.62271 0.30427,-10.80831 -0.60854,-1.25151 -1.14106,-2.67366 -1.14106,-3.12871 -0.0761,-5.11974 -7.75931,-11.37719 -13.92107,-11.37719 h -1.82572 l -0.45644,-9.78435 -0.45644,-9.78438 -2.12999,-1.13773 c -4.10788,-2.21852 -11.63894,-7.9071 -13.845,-10.52386 -6.61822,-7.73646 -6.00966,-18.82923 1.29319,-24.68846 1.74966,-1.42217 2.43429,-1.53593 7.45503,-1.53593 9.12856,0 14.30144,-1.99101 17.11608,-6.54187 1.74962,-2.7874 1.82571,-5.34727 0.30429,-8.13469 -2.35824,-4.15267 -7.75931,-6.94008 -13.38859,-6.94008 h -3.11893 l 2.35823,-1.64967 c 3.04283,-2.16167 3.87961,-3.92512 3.87961,-8.36222 0,-5.40416 -2.89069,-8.70355 -8.4439,-9.61372 -1.82573,-0.28443 -2.20608,-0.56885 -1.74965,-1.30836 0.38036,-0.56888 0.7607,-3.29941 0.91284,-6.1437 l 0.22824,-5.17659 -2.5104,-1.99104 c -1.36927,-1.0808 -2.96676,-2.10476 -3.49926,-2.21852 -0.68464,-0.17066 -0.15215,-1.53591 1.74963,-4.94904 2.81464,-5.00599 4.94465,-10.86524 6.46608,-17.46401 1.21714,-5.63168 1.06501,-20.023804 -0.30427,-25.883049 -0.68466,-2.673637 -1.21716,-5.176612 -1.21716,-5.574818 0,-0.341309 -0.22822,-0.682629 -0.5325,-0.682629 -0.38036,0 -4.5323,6.317192 -11.37873,12.119555 -6.92251,5.802351 -10.42987,12.385471 -14.63771,8.928211 -0.5716,-0.46965 -11.1945,-8.404912 -9.20467,-6.25743 0.19913,0.21492 3.15107,-12.10823 12.94022,-17.03452 l 14.43761,-12.533373 0.69259,-0.12653 c -2.81468,-4.15267 -6.99861,-8.874196 -10.72609,-12.059805 l -2.66253,-2.275436 2.66253,-2.559857 c 4.94462,-4.892187 5.78141,-6.996962 5.85749,-14.278359 0,-6.200558 -0.15217,-6.712528 -2.4343,-10.296335 C 772.95155,20.620508 758.1176,15.045692 743.58795,17.150467 Z"
     id="path247"
     style="fill:#d1bba3;fill-opacity:1;stroke:#000000;stroke-width:8.75838;stroke-linecap:round;stroke-linejoin:bevel;stroke-dasharray:none;stroke-opacity:1;paint-order:normal"
     sodipodi:nodetypes="ccccccscccccccccccscsccccccccscccccsccccccsccsccscccccccccsscsscccsccccc" />
  <path
     id="path251"
     style="fill:#d1bba3;fill-opacity:1;stroke:#000000;stroke-width:9.23094;stroke-linecap:round;stroke-linejoin:bevel;stroke-dasharray:none;stroke-opacity:1;paint-order:fill markers stroke"
     d="m 1057.7428,19.402776 c -5.5334,0 -8.631,0.296329 -13.3817,0.29916 l -0.1848,19.885408 -31.078,0.09148 0.1042,-19.533169 c -20.38468,0.143508 -30.22321,-0.164111 -31.36431,0.590079 -1.76527,1.166649 -2.01798,5.165997 -1.76576,34.332093 l 0.37914,33.08374 3.90837,1.332981 4.03401,1.249978 -2.39385,2.083299 c -4.03496,3.333276 -6.55811,10.500165 -5.92767,16.166725 1.13469,8.58317 7.43929,14.49978 18.91367,17.91636 l 5.9278,1.74966 -2.3962,2.66595 c -4.53935,4.91659 -2.3962,14.66774 3.9082,17.58435 2.2694,0.99997 2.27,1.58269 -1.3867,17.24904 -8.8263,37.49929 -18.41024,62.08198 -31.27139,80.08165 -2.64785,3.83326 -5.29593,7.91655 -5.67407,9.16648 -0.50434,1.16667 -3.02527,3.08431 -5.92539,4.33427 -3.67605,4.10955 -4.44324,5.13116 -4.89217,8.34321 0.2094,2.23093 -1.2273,6.59088 1.04901,8.15531 1.95531,4.09847 5.1027,6.66674 9.26369,9.58337 l 2.52188,1.91729 182.07574,-1e-5 h -4.9181 l 3.1522,-2.49993 c 5.2961,-4.08328 7.5654,-9.33384 6.935,-15.25041 -0.7566,-5.91656 -2.8987,-9.2495 -8.5727,-12.99946 l -4.0363,-2.58294 h 3.2803 c 1.7652,0 3.2778,-0.084 3.2778,-0.25063 0,-0.1667 -3.7842,-3.99905 -8.4494,-8.5822 -9.8352,-9.74984 -13.1129,-14.41681 -20.9307,-29.49986 -11.474,-22.24958 -19.7953,-47.99918 -19.7953,-61.24896 0,-4.16656 0.3779,-5.16723 2.6475,-6.08389 5.6742,-2.33325 8.1964,-12.33246 4.2875,-16.83236 -2.648,-2.99993 -2.3971,-3.16761 3.5292,-4.33425 8.1958,-1.58328 17.7804,-8.33254 19.7977,-13.91579 2.3956,-6.8332 1.1337,-14.332758 -3.5316,-19.24934 l -3.7827,-4.000582 4.4131,-0.416657 c 8.3219,-0.916651 7.9447,0.834222 7.9447,-35.248411 l -0.4645,-34.510103 2.8912,0.09402 c -29.278,-0.445013 -15.0962,-0.310795 -32.6557,-0.306927 l 0.2002,18.947184 -29.8685,0.129258 -0.1911,-19.604126 c -5.62,-0.0041 -12.8293,-0.08233 -19.6021,-0.08233 z"
     sodipodi:nodetypes="sccccsccccccccccccccccccscccccssccscccccccsccccccss" />
  <path
     d="m 139.97969,29.31462 c -19.06321,3.436912 -32.77368,15.186332 -36.81169,31.41173 -3.00505,12.308921 1.1269,24.61784 11.73842,34.28915 l 4.13191,3.75663 -3.75628,0.79926 c -8.92121,2.07813 -15.21298,8.55232 -17.56067,18.14367 -1.69034,6.71397 -1.78423,15.66591 -0.28173,16.94474 0.75126,0.63945 4.41365,0.95916 10.32981,0.95916 h 9.20293 l -0.46955,2.15806 c -0.18782,1.27883 -0.65735,4.63583 -0.93907,7.51323 -1.3147,13.1082 -9.67245,27.41533 -23.1012,39.40453 -5.822258,5.27526 -9.229798,6.63018 -11.445359,8.34314 -7.939734,6.13859 -7.968181,7.67658 -9.940978,13.24444 0.652837,5.04744 -0.07162,15.4873 5.42208,16.85782 3.380673,0.63943 3.944109,1.9982 0.751265,1.9982 -4.038014,0 -4.413648,1.11899 -4.413648,14.86662 0,10.71036 0.281721,13.18813 1.502515,14.2272 1.314707,1.11899 9.0151,1.27884 71.275675,1.27884 62.26056,0 69.96093,-0.15985 71.27566,-1.27884 1.22078,-1.03907 1.50252,-3.51684 1.50252,-14.2272 0,-13.42791 -0.37564,-14.86662 -4.03803,-14.86662 -0.93907,0 -1.59642,-0.23978 -1.40861,-0.63941 2.81722,-4.63584 3.94412,-7.91288 4.31974,-12.94835 0.56345,-8.47237 -0.75126,-11.98922 -6.1979,-16.14547 -13.05309,-10.07093 -20.7535,-17.9039 -25.9184,-26.7759 -5.16491,-8.79209 -6.3857,-13.18812 -6.57351,-23.65871 l -0.18781,-9.35158 h 10.98716 c 8.63947,0 11.17494,-0.2398 12.11402,-1.19894 1.78424,-1.83833 0.56346,-15.74582 -1.78423,-21.26086 -3.38066,-7.67309 -9.76635,-12.54871 -18.12411,-13.90748 l -3.38067,-0.5595 4.03802,-3.59675 c 19.81445,-17.584181 15.49472,-46.837861 -8.82729,-60.18584 -9.109,-4.875617 -23.85246,-7.433312 -33.43099,-5.59497 z"
     id="path253"
     style="fill:#d1bba3;fill-opacity:1;stroke:#000000;stroke-width:8;stroke-linecap:round;stroke-linejoin:bevel;stroke-dasharray:none;stroke-opacity:1;paint-order:fill markers stroke"
     sodipodi:nodetypes="ccccccssccccsccsssssssccccccsccccccc" />
  <path
     style="fill:#d1bba3;fill-opacity:1;stroke:#000000;stroke-width:8;stroke-linecap:round;stroke-linejoin:bevel;stroke-dasharray:none;stroke-opacity:1;paint-order:fill markers stroke"
     d="m 80.151842,224.12453 132.105198,0.87435 h -0.41089"
     id="path3944" />
  <path
     style="fill:#d1bba3;fill-opacity:1;stroke:#000000;stroke-width:9.23094;stroke-linecap:round;stroke-linejoin:bevel;stroke-dasharray:none;stroke-opacity:1;paint-order:fill markers stroke"
     d="m 967.76551,287.35008 180.96599,0.36467"
     id="path3950" />
  <path
     style="fill:#d1bba3;fill-opacity:1;stroke:#000000;stroke-width:8.47102;stroke-linecap:round;stroke-linejoin:bevel;stroke-dasharray:none;stroke-opacity:1;paint-order:fill markers stroke"
     d="m 1608.7306,292.44955 95.1336,0.20996"
     id="path4054" />
  <path
     style="fill:#d1bba3;fill-opacity:1;stroke:#000000;stroke-width:9.23094;stroke-linecap:round;stroke-linejoin:bevel;stroke-dasharray:none;stroke-opacity:1;paint-order:fill markers stroke"
     d="m 985.4208,89.447946 143.1727,0.455781"
     id="path4086" />
  <path
     style="fill:#d1bba3;fill-opacity:1;stroke:#000000;stroke-width:8.47102;stroke-linecap:round;stroke-linejoin:bevel;stroke-dasharray:none;stroke-opacity:1;paint-order:fill markers stroke"
     d="m 1626.184,157.12729 61.3331,0.20997"
     id="path7163" />
  <path
     style="fill:#d1bba3;fill-opacity:1;stroke:#000000;stroke-width:8.47102;stroke-linecap:round;stroke-linejoin:bevel;stroke-dasharray:none;stroke-opacity:1;paint-order:fill markers stroke"
     d="m 1622.9883,138.86035 h 67.7244"
     id="path7165" />
  <path
     style="fill:#d1bba3;fill-opacity:1;stroke:#000000;stroke-width:8.47102;stroke-linecap:round;stroke-linejoin:bevel;stroke-dasharray:none;stroke-opacity:1;paint-order:fill markers stroke"
     d="m 1625.3636,113.4204 64.8173,-0.0892"
     id="path7169" />
  <path
     style="fill:#d1bba3;fill-opacity:1;stroke:#000000;stroke-width:8.53235;stroke-linecap:round;stroke-linejoin:bevel;stroke-dasharray:none;stroke-opacity:1;paint-order:fill markers stroke"
     d="m 1310.6872,96.489208 80.6524,0.236379"
     id="path7171" />
  <path
     style="fill:#d1bba3;fill-opacity:1;stroke:#000000;stroke-width:8.53235;stroke-linecap:round;stroke-linejoin:bevel;stroke-dasharray:none;stroke-opacity:1;paint-order:fill markers stroke"
     d="m 1331.525,22.837347 c 12.1977,0.33556 26.9878,0.281679 40.2558,0.22366"
     id="path7173"
     sodipodi:nodetypes="cc" />
  <path
     style="fill:#d1bba3;fill-opacity:1;stroke:#000000;stroke-width:8.47102;stroke-linecap:round;stroke-linejoin:bevel;stroke-dasharray:none;stroke-opacity:1;paint-order:fill markers stroke"
     d="m 1639.0615,46.714258 36.1926,0.10064"
     id="path7175" />
  <path
     style="fill:#d1bba3;fill-opacity:1;stroke:#000000;stroke-width:8.53235;stroke-linecap:round;stroke-linejoin:bevel;stroke-dasharray:none;stroke-opacity:1;paint-order:fill markers stroke"
     d="m 1313.3556,145.43658 78.6592,-0.31247"
     id="path7202" />
  <path
     style="fill:#d1bba3;fill-opacity:1;stroke:#000000;stroke-width:8.53235;stroke-linecap:round;stroke-linejoin:bevel;stroke-dasharray:none;stroke-opacity:1;paint-order:fill markers stroke"
     d="m 1309.6358,124.52033 85.1584,0.49333"
     id="path7204" />
  <path
     style="fill:#d1bba3;fill-opacity:1;stroke:#000000;stroke-width:8.75838;stroke-linecap:round;stroke-linejoin:bevel;stroke-dasharray:none;stroke-opacity:1;paint-order:fill markers stroke"
     d="m 708.8371,200.17086 87.20926,-0.62227"
     id="path7208" />
  <path
     style="fill:#d1bba3;fill-opacity:1;stroke:#000000;stroke-width:8.75838;stroke-linecap:round;stroke-linejoin:bevel;stroke-dasharray:none;stroke-opacity:1;paint-order:fill markers stroke"
     d="m 704.17704,177.27107 93.20076,0.74673"
     id="path7210" />
  <path
     style="fill:#d1bba3;fill-opacity:1;stroke:#000000;stroke-width:8.75838;stroke-linecap:round;stroke-linejoin:bevel;stroke-dasharray:none;stroke-opacity:1;paint-order:fill markers stroke"
     d="m 708.3378,157.85604 85.54496,0.12444"
     id="path7212" />
  <path
     style="fill:#d1bba3;fill-opacity:1;stroke:#000000;stroke-width:8.75838;stroke-linecap:round;stroke-linejoin:bevel;stroke-dasharray:none;stroke-opacity:1;paint-order:fill markers stroke"
     d="m 715.16143,140.80564 71.7313,0.37337"
     id="path7214" />
  <path
     style="fill:#d1bba3;fill-opacity:1;stroke:#000000;stroke-width:8.75838;stroke-linecap:round;stroke-linejoin:bevel;stroke-dasharray:none;stroke-opacity:1;paint-order:fill markers stroke"
     d="m 726.47865,56.05151 c 16.71247,5.54973 32.82766,4.740971 48.28488,0.504082"
     id="path7216"
     sodipodi:nodetypes="cc" />
  <path
     style="fill:#d1bba3;fill-opacity:1;stroke:#000000;stroke-width:8.75838;stroke-linecap:round;stroke-linejoin:bevel;stroke-dasharray:none;stroke-opacity:1;paint-order:fill markers stroke"
     d="m 694.61548,256.87749 108.03367,-0.352"
     id="path7218" />
  <path
     style="fill:#d1bba3;fill-opacity:1;stroke:#000000;stroke-width:8.75838;stroke-linecap:round;stroke-linejoin:bevel;stroke-dasharray:none;stroke-opacity:1;paint-order:fill markers stroke"
     d="m 693.43866,237.51679 107.32755,0.35202"
     id="path7220" />
  <path
     style="fill:#d1bba3;fill-opacity:1;stroke:#000000;stroke-width:8.53235;stroke-linecap:round;stroke-linejoin:bevel;stroke-dasharray:none;stroke-opacity:1;paint-order:fill markers stroke"
     d="m 1299.7094,265.6883 h 98.8464"
     id="path7222" />
  <path
     style="fill:#d1bba3;fill-opacity:1;stroke:#000000;stroke-width:8.53235;stroke-linecap:round;stroke-linejoin:bevel;stroke-dasharray:none;stroke-opacity:1;paint-order:fill markers stroke"
     d="m 1301.7991,246.94264 95.2937,0.8222"
     id="path7224" />
  <path
     style="fill:#d1bba3;fill-opacity:1;stroke:#000000;stroke-width:8.47102;stroke-linecap:round;stroke-linejoin:bevel;stroke-dasharray:none;stroke-opacity:1;paint-order:fill markers stroke"
     d="m 1614.7532,266.30894 81.1218,0.20996"
     id="path7226" />
  <path
     style="fill:#d1bba3;fill-opacity:1;stroke:#000000;stroke-width:8.47102;stroke-linecap:round;stroke-linejoin:bevel;stroke-dasharray:none;stroke-opacity:1;paint-order:fill markers stroke"
     d="m 1614.6302,250.14166 80.0157,-0.31494"
     id="path7228" />
  <path
     style="fill:#d1bba3;fill-opacity:1;stroke:#000000;stroke-width:9.23094;stroke-linecap:round;stroke-linejoin:bevel;stroke-dasharray:none;stroke-opacity:1;paint-order:fill markers stroke"
     d="M 968.19527,256.66736 1144.5337,255.8939"
     id="path7230" />
  <path
     style="fill:#d1bba3;fill-opacity:1;stroke:#000000;stroke-width:9.23094;stroke-linecap:round;stroke-linejoin:bevel;stroke-dasharray:none;stroke-opacity:1;paint-order:fill markers stroke"
     d="m 1008.3786,150.6987 h 92.8507 z"
     id="path7232" />
  <path
     style="fill:#d1bba3;fill-opacity:1;stroke:#000000;stroke-width:9.23094;stroke-linecap:round;stroke-linejoin:bevel;stroke-dasharray:none;stroke-opacity:1;paint-order:fill markers stroke"
     d="m 1006.8181,129.04087 98.7028,-0.25785"
     id="path7234" />
  <path
     d="m 389.60457,25.009659 c -3.59101,1.627599 -8.07981,7.130448 -13.64587,16.508534 -5.47631,9.300586 -7.90024,16.043507 -9.96508,27.591731 -1.70575,9.920625 -1.70575,17.128578 0.0897,21.391346 1.4364,3.642731 1.61595,4.340275 12.83789,45.26284 11.76059,42.93769 15.17207,62.85646 15.98004,93.00584 l 0.53867,18.60117 -6.10474,1.47259 c -7.18206,1.78261 -10.41397,3.87525 -13.01746,8.68055 -2.42395,4.34026 -2.78306,14.26089 -0.62843,17.82613 1.4364,2.40265 5.38653,5.73533 8.25936,7.13044 1.43639,0.69754 0.80797,0.85254 -3.68082,0.93006 -13.46055,-3.60271 152.41987,0.14859 136.90768,0 h -5.56609 l 2.60349,-1.78262 c 6.28429,-4.18525 8.4389,-7.90551 8.4389,-14.49341 0,-5.42532 -1.61595,-9.14556 -5.56609,-12.86582 -3.05236,-2.79015 -4.84788,-3.72023 -10.32419,-5.19283 -5.74563,-1.47256 -6.55361,-1.9376 -6.1945,-3.25519 0.26933,-0.85257 0.71819,-3.87522 1.0773,-6.74291 l 0.62843,-5.11534 3.77057,-1.31757 c 12.11969,-3.95276 19.1222,-18.83368 16.60848,-35.1872 -1.16708,-8.06051 -5.02743,-17.90363 -9.06733,-23.794 -3.59103,-5.11533 -7.45137,-9.06809 -25.49626,-26.04164 -26.12465,-24.49152 -26.03489,-24.33652 -25.76554,-28.13425 0.35909,-7.13045 6.10472,-16.43104 12.20946,-19.763757 4.57854,-2.402645 8.43889,-2.635165 20.10969,-1.240075 5.56609,0.697543 13.10725,1.240075 16.78804,1.240075 5.74564,0 6.91271,-0.232507 9.33665,-2.015125 1.79551,-1.317581 3.23192,-3.410225 4.21946,-6.122889 1.25683,-3.720236 1.25683,-4.417782 0,-6.432903 -0.80798,-1.317585 -2.78305,-3.100198 -4.57856,-4.030256 -1.70574,-0.930056 -3.14214,-2.170136 -3.14214,-2.790174 0,-1.240082 3.41146,-3.487723 8.97753,-5.890371 5.5661,-2.480158 6.2843,-4.805301 3.14216,-10.385649 -1.52618,-2.712672 -3.95013,-5.347837 -6.73316,-7.207953 -4.0399,-2.790177 -5.02743,-3.022694 -16.33916,-4.57279 -6.55359,-0.852553 -18.76307,-2.402648 -27.20197,-3.332706 -12.92765,-1.472592 -15.7107,-2.015129 -18.22443,-3.642729 -2.78302,-1.782615 -3.68078,-1.937622 -14.36409,-2.015127 -14.00496,-0.0775 -23.16208,-2.170136 -26.21446,-5.890368 -1.07727,-1.24008 -3.05235,-2.402654 -4.75807,-2.712672 -4.21947,-0.852552 -7.81049,-2.557662 -12.02994,-5.89037 -3.2319,-2.557664 -4.39898,-3.022692 -7.63091,-3.022692 -2.15461,0.0775 -4.93764,0.542534 -6.28428,1.24008 z"
     id="path249"
     style="fill:#d1bba3;fill-opacity:1;stroke:#000000;stroke-width:8.60928;stroke-linecap:round;stroke-linejoin:bevel;stroke-dasharray:none;stroke-opacity:1;paint-order:fill markers stroke"
     sodipodi:nodetypes="ccccccccccscsccsccccccccccccsccccsccccccccccccc" />
  <path
     style="fill:#d1bba3;fill-opacity:1;stroke:#000000;stroke-width:8.60928;stroke-linecap:round;stroke-linejoin:bevel;stroke-dasharray:none;stroke-opacity:1;paint-order:fill markers stroke"
     d="M 385.08289,282.71329 512.8562,283.4327"
     id="path3946" />
  <path
     style="fill:#d1bba3;fill-opacity:1;stroke:#000000;stroke-width:8.60928;stroke-linecap:round;stroke-linejoin:bevel;stroke-dasharray:none;stroke-opacity:1;paint-order:fill markers stroke"
     d="m 394.81287,248.07791 104.88385,-0.67825"
     id="path7236" />
  <ellipse
     style="fill:#d1bba3;fill-opacity:1;stroke:#000000;stroke-width:8.60928;stroke-linecap:round;stroke-linejoin:bevel;stroke-dasharray:none;stroke-opacity:1;paint-order:fill markers stroke"
     id="path7621"
     cx="445.96667"
     cy="56.269585"
     rx="5.6252332"
     ry="2.0099437" />
  <path
     style="fill:#d1bba3;fill-opacity:1;stroke:#000000;stroke-width:8;stroke-linecap:round;stroke-linejoin:bevel;stroke-dasharray:none;stroke-opacity:1;paint-order:fill markers stroke"
     d="m 114.66742,135.05792 66.03267,0.27578"
     id="path9120" />
  <path
     style="fill:#d1bba3;fill-opacity:1;stroke:#000000;stroke-width:8;stroke-linecap:round;stroke-linejoin:bevel;stroke-dasharray:none;stroke-opacity:1;paint-order:fill markers stroke"
     d="m 116.79131,97.6109 c 20.93373,10.3814 42.72516,7.10982 64.83418,-0.36372"
     id="path9122"
     sodipodi:nodetypes="cc" />
  <path
     d="m 1643.5491,306.50983 c -0.4494,0.38388 -0.674,2.39925 -0.674,5.99814 v 5.42232 h -6.4046 c -4.7192,0 -6.517,0.19194 -7.0226,0.67179 -0.4495,0.43187 -0.6181,3.35896 -0.5057,9.45308 l 0.1687,8.82926 6.9102,0.14396 6.854,0.14395 v 4.75053 4.79852 h -22.1913 c -14.2698,0 -22.1913,0.19194 -22.1913,0.47985 0,0.23993 3.3146,10.36479 7.3597,22.40907 4.0448,12.09225 8.8765,26.63176 10.7304,32.29399 1.91,5.66227 3.6517,10.60473 3.9889,10.89264 0.2808,0.3359 1.4606,0.62382 2.6404,0.62382 h 2.1348 l -0.2808,3.02307 c -3.3311,5.49862 -5.1536,8.09782 -6.0674,13.48382 -0.5057,3.45491 -0.1124,4.70253 2.2472,6.95783 l 1.9663,1.82345 -3.1461,0.2879 c -11.3485,1.00769 -13.4271,13.57981 -2.9213,17.37064 1.2359,0.38388 3.7639,0.71977 6.0112,0.71977 3.5956,0 4.045,0.096 4.8876,1.19963 3.9328,5.08643 4.3823,20.6816 1.2923,41.50716 -2.9776,20.34569 -8.9889,41.55514 -13.4833,47.74522 l -1.7979,2.39927 0.3935,8.01352 0.3932,8.01353 -2.1348,0.76775 c -2.9776,1.05567 -5.0563,2.87911 -6.18,5.47031 -0.5056,1.19962 -1.6854,3.35895 -2.5281,4.79852 -2.7527,4.51059 -1.9101,9.30912 2.3596,13.09994 l 2.5843,2.30329 h -4.045 c -2.7528,0 -4.2135,0.19194 -4.663,0.67178 -0.4495,0.47985 111.5742,0 111.0685,-0.2879 -0.3932,-0.19194 -2.3596,-0.38388 -4.3821,-0.38388 h -3.6516 l 1.8539,-1.00769 c 3.7641,-2.06335 5.6181,-8.20547 3.7641,-12.42816 -0.5057,-1.19963 -1.1237,-3.11905 -1.3483,-4.31865 -0.5057,-2.54322 -1.6856,-4.60658 -3.5393,-6.09412 -1.4608,-1.19963 -4.944,-2.54323 -6.5169,-2.54323 -0.9552,0 -1.1237,-0.52783 -1.4608,-4.41463 -0.1685,-2.39925 -0.3371,-6.04612 -0.3371,-8.10948 0,-3.5509 -0.056,-3.74285 -1.8539,-5.27838 -3.5394,-3.02305 -7.472,-13.14792 -9.9439,-25.57608 -5.2248,-26.1519 -4.8877,-54.84703 0.7303,-63.38839 l 1.2921,-1.91941 5.2809,-0.23992 c 5.8428,-0.28792 7.9776,-0.95972 10.2811,-3.35898 2.809,-2.83111 3.1461,-7.14977 0.8426,-10.46075 -1.4044,-1.96738 -5.1685,-3.8388 -8.5955,-4.2227 -2.5844,-0.33588 -2.6405,-0.33588 -1.4607,-1.10365 2.4719,-1.63149 3.427,-3.45494 3.427,-6.8139 0,-2.49522 -0.2808,-3.50291 -1.236,-4.75052 -1.178,-4.53308 -8.3914,-12.94134 -4.2696,-12.95598 0.8988,0 1.7415,-0.3359 2.0224,-0.86373 0.5057,-0.81575 22.0227,-64.77997 22.0227,-65.49975 0,-0.19193 -9.7192,-0.33589 -21.6294,-0.33589 h -21.6294 v -4.79852 -4.79851 h 6.0675 c 3.9887,0 6.2921,-0.19194 6.7416,-0.57583 0.955,-0.81574 0.955,-17.22666 0,-18.04241 -0.4495,-0.38388 -2.7529,-0.57582 -6.7416,-0.57582 h -6.0675 v -5.42232 c 0,-3.59889 -0.2248,-5.61426 -0.6742,-5.99814 -0.5056,-0.43187 -4.2698,-0.57583 -13.3709,-0.57583 -9.1012,0 -12.8653,0.14396 -13.371,0.57583 z"
     id="path243-5"
     style="fill:#5a5a5a;fill-opacity:1;stroke:#000000;stroke-width:8.47102;stroke-linecap:round;stroke-linejoin:bevel;stroke-dasharray:none;stroke-opacity:1;paint-order:fill markers stroke"
     sodipodi:nodetypes="sscscccccccsscccscccccccscccccccccccsscscccccscscccccccccscccsscccsssscsssss" />
  <path
     d="m 1345.8754,308.04037 c -3.4981,1.06377 -5.4063,2.23392 -7.4418,4.62739 -2.0353,2.34029 -3.4982,6.70174 -2.862,8.77608 l 0.3815,1.27652 h -25.5695 -25.5693 l 0.3818,1.70203 c 1.1448,4.9997 24.4882,71.96384 25.1241,72.01703 0.3816,0.0532 1.9081,0.10637 3.3074,0.15956 2.2898,0.0532 2.5442,0.15957 1.7809,0.9042 -5.3188,10.83094 -5.3699,4.17528 -7.3781,17.92448 -0.3817,3.77638 0.636,6.16984 3.4346,8.13783 l 1.5902,1.11695 -3.6256,0.31911 c -6.6784,0.58509 -11.1307,4.46786 -11.1307,9.62712 0,2.97856 0.8904,4.94653 3.0529,6.86128 2.7987,2.44667 5.1522,3.24452 10.8765,3.56364 5.1522,0.26595 5.47,0.31913 6.4877,1.86159 6.1696,8.93562 2.9259,48.295 -6.4241,79.51658 -3.0529,10.21215 -6.9965,18.93505 -8.9048,19.94562 -0.4453,0.21274 -0.6359,3.72319 -0.6359,9.94625 l 0.1271,9.57389 -2.4805,0.9574 c -2.926,1.11695 -6.297,4.30824 -6.9329,6.59534 -0.2546,0.90419 -1.1452,2.55304 -2.0354,3.67 -1.2723,1.54246 -1.7174,2.97855 -1.9083,5.53158 -0.318,4.30826 0.9541,7.34 4.4523,10.21216 79.5724,0.93674 112.3905,0.58508 112.3905,0.58508 2.7351,-2.34028 4.7068,-7.07406 4.2616,-10.26535 -0.1908,-1.43607 -0.7633,-3.29768 -1.3359,-4.20187 -0.5087,-0.9042 -0.9539,-2.39348 -0.9539,-3.2445 0,-2.39346 -2.3533,-6.06346 -4.8976,-7.65911 -1.2085,-0.79786 -3.4983,-1.70205 -5.1521,-2.02116 l -2.9894,-0.63826 -0.1908,-8.66971 -0.1908,-8.72287 -2.4806,-2.28711 c -1.3358,-1.27653 -2.8623,-3.3509 -3.3711,-4.57421 -0.5725,-1.22333 -1.7174,-3.98912 -2.6079,-6.11666 -4.6432,-10.79724 -8.2687,-31.96619 -9.0954,-52.23096 -0.5725,-16.48841 1.2084,-29.46635 4.9612,-35.15749 l 1.5265,-2.34028 6.0425,-0.26595 c 6.2968,-0.31912 8.7138,-1.01059 11.2582,-3.29769 1.9079,-1.70201 2.735,-3.77638 2.735,-7.02087 0,-4.99968 -4.4525,-8.93564 -11.1309,-9.68029 l -2.9258,-0.3723 1.9717,-1.70205 c 2.417,-2.07431 3.3074,-4.57417 2.7986,-7.97824 -1.2036,-10.05469 -9.9323,-18.29437 -7.3782,-18.45636 2.8622,-0.10638 3.1801,-0.15957 3.6254,-0.4787 0.6362,-0.58507 25.0605,-72.49572 24.7426,-72.92123 -0.1909,-0.21275 -11.449,-0.4255 -24.997,-0.4255 h -24.6787 l -0.064,-2.87217 c -0.065,-8.56333 -10.4309,-14.6268 -19.9717,-11.80782 z"
     id="path245-2"
     style="fill:#5a5a5a;fill-opacity:1;stroke:#000000;stroke-width:8.53235;stroke-linecap:round;stroke-linejoin:bevel;stroke-dasharray:none;stroke-opacity:1;paint-order:fill markers stroke"
     sodipodi:nodetypes="scccccccccccccscccccccccccccccscccccccccccccscccccccsccss" />
  <path
     d="m 743.58813,315.69248 c -7.53107,1.08084 -14.83395,4.83531 -19.24609,9.7275 -4.10788,4.72151 -5.32504,8.24844 -4.94467,14.33523 0.30431,5.46103 1.74966,8.76042 5.62929,12.91309 l 1.82573,1.99101 -3.11891,2.55985 c -13.16038,10.58077 -19.93076,25.71241 -19.93076,44.59852 0,13.02685 2.66253,22.69748 9.28074,33.56265 2.20604,3.58381 2.35821,4.03891 1.14106,4.55088 -3.27106,1.47901 -5.17287,2.90116 -6.08573,4.60775 -1.36927,2.44607 -1.36927,8.36223 0,10.4101 1.06503,1.53593 1.06503,1.59282 -1.44533,2.27545 -1.36929,0.34131 -3.57538,1.53591 -4.79252,2.55985 -4.71644,4.03889 -3.65144,12.79933 1.82571,15.52985 l 2.13,1.02394 -4.71642,0.3413 c -8.06359,0.56888 -12.78003,3.98202 -13.69288,9.95503 -0.45643,3.35627 0.98893,6.14367 4.48822,8.36223 3.65142,2.38919 7.37893,3.24251 13.84501,3.24251 4.71644,0 5.09677,0.11368 6.69431,1.76344 2.05392,2.16168 3.72749,6.25745 3.72749,9.15864 0,6.02989 -6.46607,14.56276 -16.73573,22.1286 l -6.61823,4.83528 0.38037,9.67062 0.38035,9.72748 -3.57535,1.25148 c -3.95571,1.47903 -6.61822,3.81134 -8.13965,7.16761 -0.60858,1.25151 -1.67357,2.90118 -2.35821,3.69758 -0.76074,0.79641 -1.74966,2.90118 -2.28215,4.66464 -1.29321,4.494 0.88604,10.99552 5.45033,14.40865 0,0 134.36295,0.26791 130.79372,0.26791 l 2.81464,-1.82036 c 1.59749,-1.02394 3.42322,-2.90117 4.18394,-4.15266 1.67356,-2.73053 1.82571,-7.62271 0.30426,-10.80832 -0.60853,-1.25149 -1.14105,-2.67365 -1.14105,-3.1287 -0.0761,-5.11974 -7.75931,-11.3772 -13.92108,-11.3772 h -1.82571 l -0.45644,-9.78435 -0.45644,-9.78438 -2.12999,-1.13773 c -4.10788,-2.21852 -11.63894,-7.90709 -13.84501,-10.52385 -6.61822,-7.73646 -6.00965,-18.82924 1.29319,-24.68847 1.74967,-1.42216 2.43429,-1.53591 7.45504,-1.53591 9.12856,0 14.30143,-1.99101 17.11607,-6.54189 1.74963,-2.7874 1.82572,-5.34726 0.30429,-8.13468 -2.35823,-4.15267 -7.75931,-6.94007 -13.38859,-6.94007 h -3.11893 l 2.35824,-1.64969 c 3.04283,-2.16166 3.87961,-3.92512 3.87961,-8.36221 0,-5.40417 -2.89069,-8.70355 -8.44391,-9.61371 -1.82573,-0.28444 -2.20608,-0.56886 -1.74964,-1.30837 0.38036,-0.56888 0.7607,-3.2994 0.91284,-6.14371 l 0.22823,-5.17659 -2.51039,-1.99103 c -1.36927,-1.0808 -2.96676,-2.10476 -3.49926,-2.21852 -0.68464,-0.17065 -0.15215,-1.53592 1.74963,-4.94905 2.81464,-5.00597 4.94465,-10.86523 6.46607,-17.46399 1.21715,-5.63169 1.06502,-20.02382 -0.30426,-25.88306 -0.68466,-2.67363 -1.21716,-5.17661 -1.21716,-5.57481 0,-0.34132 -0.22822,-0.68264 -0.5325,-0.68264 -0.38036,0 -4.53231,6.3172 -11.37874,12.11956 -6.9225,5.80234 -10.42986,12.38547 -14.6377,8.92821 -0.5716,-0.46966 -11.1945,-8.40492 -9.20467,-6.25744 0.19913,0.21492 3.15107,-12.10822 12.94021,-17.03451 l 14.43762,-12.53337 0.69259,-0.12653 c -2.81468,-4.15268 -6.99861,-8.8742 -10.72609,-12.05981 l -2.66253,-2.27543 2.66253,-2.55986 c 4.94461,-4.89219 5.78141,-6.99697 5.85748,-14.27836 0,-6.20056 -0.15216,-6.71253 -2.43429,-10.29634 -6.6182,-10.06879 -21.45214,-15.64361 -35.9818,-13.53884 z"
     id="path247-7"
     style="fill:#5a5a5a;fill-opacity:1;stroke:#000000;stroke-width:8.75838;stroke-linecap:round;stroke-linejoin:bevel;stroke-dasharray:none;stroke-opacity:1;paint-order:normal"
     sodipodi:nodetypes="ccccccscccccccccccscsccccccccscccccsccccccsccsccscccccccccsscsscccsccccc" />
  <path
     id="path251-6"
     style="fill:#5a5a5a;fill-opacity:1;stroke:#000000;stroke-width:9.23094;stroke-linecap:round;stroke-linejoin:bevel;stroke-dasharray:none;stroke-opacity:1;paint-order:fill markers stroke"
     d="m 1057.743,319.33381 c -5.5334,0 -8.631,0.29632 -13.3817,0.29916 l -0.1848,19.8854 -31.078,0.0915 0.1042,-19.53317 c -20.38467,0.14351 -30.2232,-0.16411 -31.3643,0.59008 -1.76527,1.16665 -2.01798,5.166 -1.76576,34.3321 l 0.37914,33.08374 3.90837,1.33298 4.03401,1.24998 -2.39385,2.08329 c -4.03496,3.33328 -6.55811,10.50017 -5.92767,16.16673 1.13469,8.58317 7.43929,14.49978 18.91368,17.91636 l 5.92778,1.74966 -2.3962,2.66595 c -4.53938,4.91659 -2.3962,14.66774 3.9082,17.58435 2.2694,0.99997 2.27,1.58269 -1.3867,17.24904 -8.82628,37.49929 -18.41023,62.08198 -31.27138,80.08165 -2.64785,3.83326 -5.29593,7.91655 -5.67407,9.16648 -0.50434,1.16667 -3.02527,3.08431 -5.92539,4.33427 -3.67605,4.10955 -4.44324,5.13116 -4.89217,8.34321 0.2094,2.23093 -1.2273,6.59088 1.04901,8.15531 1.95531,4.09847 5.1027,6.66674 9.26369,9.58337 l 2.52188,1.91729 182.07573,-1e-5 h -4.9181 l 3.1522,-2.49993 c 5.2961,-4.08328 7.5654,-9.33384 6.935,-15.25041 -0.7566,-5.91656 -2.8987,-9.2495 -8.5727,-12.99946 l -4.0363,-2.58294 h 3.2803 c 1.7652,0 3.2778,-0.084 3.2778,-0.25063 0,-0.1667 -3.7842,-3.99905 -8.4494,-8.5822 -9.8352,-9.74984 -13.1129,-14.41681 -20.9307,-29.49986 -11.474,-22.24958 -19.7953,-47.99918 -19.7953,-61.24896 0,-4.16656 0.3779,-5.16723 2.6475,-6.08389 5.6742,-2.33325 8.1964,-12.33246 4.2875,-16.83236 -2.648,-2.99993 -2.3971,-3.16761 3.5292,-4.33425 8.1958,-1.58328 17.7804,-8.33254 19.7977,-13.91579 2.3956,-6.8332 1.1337,-14.33276 -3.5316,-19.24934 l -3.7827,-4.00058 4.4131,-0.41666 c 8.3219,-0.91665 7.9447,0.83422 7.9447,-35.24841 l -0.4645,-34.5101 2.8912,0.094 c -29.278,-0.44502 -15.0962,-0.3108 -32.6557,-0.30693 l 0.2002,18.94718 -29.8685,0.12926 -0.1911,-19.60412 c -5.62,-0.004 -12.8293,-0.0823 -19.6021,-0.0823 z"
     sodipodi:nodetypes="sccccsccccccccccccccccccscccccssccscccccccsccccccss" />
  <path
     d="m 139.9799,329.24565 c -19.06321,3.43691 -32.77368,15.18633 -36.81169,31.41173 -3.00505,12.30892 1.1269,24.61784 11.73842,34.28915 l 4.13191,3.75663 -3.75628,0.79926 c -8.92121,2.07813 -15.21298,8.55232 -17.560673,18.14367 -1.69034,6.71397 -1.78423,15.66591 -0.28173,16.94474 0.75126,0.63945 4.413653,0.95916 10.329813,0.95916 h 9.20293 l -0.46955,2.15806 c -0.18782,1.27883 -0.65735,4.63583 -0.93907,7.51323 -1.3147,13.1082 -9.67245,27.41533 -23.101206,39.40453 -5.82226,5.27526 -9.2298,6.63018 -11.44536,8.34314 -7.93973,6.13859 -7.96818,7.67658 -9.94098,13.24444 0.65284,5.04744 -0.0716,15.4873 5.42208,16.85782 3.38068,0.63943 3.94411,1.9982 0.75127,1.9982 -4.03802,0 -4.41365,1.11899 -4.41365,14.86662 0,10.71036 0.28172,13.18813 1.50251,14.2272 1.31471,1.11899 9.01511,1.27884 71.275686,1.27884 62.26056,0 69.96093,-0.15985 71.27566,-1.27884 1.22078,-1.03907 1.50252,-3.51684 1.50252,-14.2272 0,-13.42791 -0.37564,-14.86662 -4.03803,-14.86662 -0.93907,0 -1.59642,-0.23978 -1.40861,-0.63941 2.81722,-4.63584 3.94412,-7.91288 4.31974,-12.94835 0.56345,-8.47237 -0.75126,-11.98922 -6.1979,-16.14547 -13.05309,-10.07093 -20.7535,-17.9039 -25.9184,-26.7759 -5.16491,-8.79209 -6.3857,-13.18812 -6.57351,-23.65871 l -0.18781,-9.35158 h 10.98716 c 8.63947,0 11.17494,-0.2398 12.11402,-1.19894 1.78424,-1.83833 0.56346,-15.74582 -1.78423,-21.26086 -3.38066,-7.67309 -9.76635,-12.54871 -18.12411,-13.90748 l -3.38067,-0.5595 4.03802,-3.59675 c 19.81445,-17.58418 15.49472,-46.83786 -8.82729,-60.18584 -9.109,-4.87562 -23.85246,-7.43331 -33.43099,-5.59497 z"
     id="path253-1"
     style="fill:#5a5a5a;fill-opacity:1;stroke:#000000;stroke-width:8;stroke-linecap:round;stroke-linejoin:bevel;stroke-dasharray:none;stroke-opacity:1;paint-order:fill markers stroke"
     sodipodi:nodetypes="ccccccssccccsccsssssssccccccsccccccc" />
  <path
     style="fill:#d1bba3;fill-opacity:1;stroke:#000000;stroke-width:8;stroke-linecap:round;stroke-linejoin:bevel;stroke-dasharray:none;stroke-opacity:1;paint-order:fill markers stroke"
     d="m 80.152044,524.05556 132.105206,0.87435 h -0.41089"
     id="path3944-4" />
  <path
     style="fill:#d1bba3;fill-opacity:1;stroke:#000000;stroke-width:9.23094;stroke-linecap:round;stroke-linejoin:bevel;stroke-dasharray:none;stroke-opacity:1;paint-order:fill markers stroke"
     d="m 967.76572,587.28111 180.96598,0.36467"
     id="path3950-2" />
  <path
     style="fill:#d1bba3;fill-opacity:1;stroke:#000000;stroke-width:8.47102;stroke-linecap:round;stroke-linejoin:bevel;stroke-dasharray:none;stroke-opacity:1;paint-order:fill markers stroke"
     d="m 1608.7308,592.38058 95.1336,0.20996"
     id="path4054-2" />
  <path
     style="fill:#d1bba3;fill-opacity:1;stroke:#000000;stroke-width:9.23094;stroke-linecap:round;stroke-linejoin:bevel;stroke-dasharray:none;stroke-opacity:1;paint-order:fill markers stroke"
     d="m 985.42101,389.37898 143.17269,0.45578"
     id="path4086-2" />
  <path
     style="fill:#d1bba3;fill-opacity:1;stroke:#000000;stroke-width:8.47102;stroke-linecap:round;stroke-linejoin:bevel;stroke-dasharray:none;stroke-opacity:1;paint-order:fill markers stroke"
     d="m 1626.1842,457.05832 61.3331,0.20997"
     id="path7163-1" />
  <path
     style="fill:#d1bba3;fill-opacity:1;stroke:#000000;stroke-width:8.47102;stroke-linecap:round;stroke-linejoin:bevel;stroke-dasharray:none;stroke-opacity:1;paint-order:fill markers stroke"
     d="m 1622.9885,438.79138 h 67.7244"
     id="path7165-6" />
  <path
     style="fill:#d1bba3;fill-opacity:1;stroke:#000000;stroke-width:8.47102;stroke-linecap:round;stroke-linejoin:bevel;stroke-dasharray:none;stroke-opacity:1;paint-order:fill markers stroke"
     d="m 1625.3638,413.35143 64.8173,-0.0892"
     id="path7169-8" />
  <path
     style="fill:#d1bba3;fill-opacity:1;stroke:#000000;stroke-width:8.53235;stroke-linecap:round;stroke-linejoin:bevel;stroke-dasharray:none;stroke-opacity:1;paint-order:fill markers stroke"
     d="m 1310.6874,396.42024 80.6524,0.23638"
     id="path7171-5" />
  <path
     style="fill:#d1bba3;fill-opacity:1;stroke:#000000;stroke-width:8.53235;stroke-linecap:round;stroke-linejoin:bevel;stroke-dasharray:none;stroke-opacity:1;paint-order:fill markers stroke"
     d="m 1331.5252,322.76838 c 12.1977,0.33556 26.9878,0.28168 40.2558,0.22366"
     id="path7173-7"
     sodipodi:nodetypes="cc" />
  <path
     style="fill:#d1bba3;fill-opacity:1;stroke:#000000;stroke-width:8.47102;stroke-linecap:round;stroke-linejoin:bevel;stroke-dasharray:none;stroke-opacity:1;paint-order:fill markers stroke"
     d="m 1639.0617,346.64529 36.1926,0.10064"
     id="path7175-6" />
  <path
     style="fill:#d1bba3;fill-opacity:1;stroke:#000000;stroke-width:8.53235;stroke-linecap:round;stroke-linejoin:bevel;stroke-dasharray:none;stroke-opacity:1;paint-order:fill markers stroke"
     d="m 1313.3558,445.36761 78.6592,-0.31247"
     id="path7202-1" />
  <path
     style="fill:#d1bba3;fill-opacity:1;stroke:#000000;stroke-width:8.53235;stroke-linecap:round;stroke-linejoin:bevel;stroke-dasharray:none;stroke-opacity:1;paint-order:fill markers stroke"
     d="m 1309.636,424.45136 85.1584,0.49333"
     id="path7204-8" />
  <path
     style="fill:#d1bba3;fill-opacity:1;stroke:#000000;stroke-width:8.75838;stroke-linecap:round;stroke-linejoin:bevel;stroke-dasharray:none;stroke-opacity:1;paint-order:fill markers stroke"
     d="m 708.83728,498.71287 87.20926,-0.62226"
     id="path7208-9" />
  <path
     style="fill:#d1bba3;fill-opacity:1;stroke:#000000;stroke-width:8.75838;stroke-linecap:round;stroke-linejoin:bevel;stroke-dasharray:none;stroke-opacity:1;paint-order:fill markers stroke"
     d="m 704.17723,475.81308 93.20076,0.74674"
     id="path7210-2" />
  <path
     style="fill:#d1bba3;fill-opacity:1;stroke:#000000;stroke-width:8.75838;stroke-linecap:round;stroke-linejoin:bevel;stroke-dasharray:none;stroke-opacity:1;paint-order:fill markers stroke"
     d="m 708.33799,456.39806 85.54496,0.12444"
     id="path7212-7" />
  <path
     style="fill:#d1bba3;fill-opacity:1;stroke:#000000;stroke-width:8.75838;stroke-linecap:round;stroke-linejoin:bevel;stroke-dasharray:none;stroke-opacity:1;paint-order:fill markers stroke"
     d="m 715.16161,439.34766 71.73131,0.37336"
     id="path7214-9" />
  <path
     style="fill:#d1bba3;fill-opacity:1;stroke:#000000;stroke-width:8.75838;stroke-linecap:round;stroke-linejoin:bevel;stroke-dasharray:none;stroke-opacity:1;paint-order:fill markers stroke"
     d="m 726.47884,354.59353 c 16.71247,5.54972 32.82765,4.74096 48.28487,0.50408"
     id="path7216-5"
     sodipodi:nodetypes="cc" />
  <path
     style="fill:#d1bba3;fill-opacity:1;stroke:#000000;stroke-width:8.75838;stroke-linecap:round;stroke-linejoin:bevel;stroke-dasharray:none;stroke-opacity:1;paint-order:fill markers stroke"
     d="m 694.61567,555.41951 108.03366,-0.35199"
     id="path7218-4" />
  <path
     style="fill:#d1bba3;fill-opacity:1;stroke:#000000;stroke-width:8.75838;stroke-linecap:round;stroke-linejoin:bevel;stroke-dasharray:none;stroke-opacity:1;paint-order:fill markers stroke"
     d="m 693.43885,536.0588 107.32754,0.35202"
     id="path7220-3" />
  <path
     style="fill:#d1bba3;fill-opacity:1;stroke:#000000;stroke-width:8.53235;stroke-linecap:round;stroke-linejoin:bevel;stroke-dasharray:none;stroke-opacity:1;paint-order:fill markers stroke"
     d="m 1299.7096,565.61933 h 98.8464"
     id="path7222-1" />
  <path
     style="fill:#d1bba3;fill-opacity:1;stroke:#000000;stroke-width:8.53235;stroke-linecap:round;stroke-linejoin:bevel;stroke-dasharray:none;stroke-opacity:1;paint-order:fill markers stroke"
     d="m 1301.7993,546.87367 95.2937,0.8222"
     id="path7224-2" />
  <path
     style="fill:#d1bba3;fill-opacity:1;stroke:#000000;stroke-width:8.47102;stroke-linecap:round;stroke-linejoin:bevel;stroke-dasharray:none;stroke-opacity:1;paint-order:fill markers stroke"
     d="m 1614.7534,566.23997 81.1218,0.20996"
     id="path7226-3" />
  <path
     style="fill:#d1bba3;fill-opacity:1;stroke:#000000;stroke-width:8.47102;stroke-linecap:round;stroke-linejoin:bevel;stroke-dasharray:none;stroke-opacity:1;paint-order:fill markers stroke"
     d="m 1614.6304,550.07269 80.0157,-0.31494"
     id="path7228-3" />
  <path
     style="fill:#d1bba3;fill-opacity:1;stroke:#000000;stroke-width:9.23094;stroke-linecap:round;stroke-linejoin:bevel;stroke-dasharray:none;stroke-opacity:1;paint-order:fill markers stroke"
     d="m 968.19548,556.59839 176.33842,-0.77346"
     id="path7230-4" />
  <path
     style="fill:#d1bba3;fill-opacity:1;stroke:#000000;stroke-width:9.23094;stroke-linecap:round;stroke-linejoin:bevel;stroke-dasharray:none;stroke-opacity:1;paint-order:fill markers stroke"
     d="m 1008.3788,450.62973 h 92.8507 z"
     id="path7232-1" />
  <path
     style="fill:#d1bba3;fill-opacity:1;stroke:#000000;stroke-width:9.23094;stroke-linecap:round;stroke-linejoin:bevel;stroke-dasharray:none;stroke-opacity:1;paint-order:fill markers stroke"
     d="m 1006.8183,428.9719 98.7028,-0.25785"
     id="path7234-1" />
  <path
     d="m 389.60478,324.94069 c -3.59101,1.6276 -8.07981,7.13045 -13.64587,16.50853 -5.47631,9.30059 -7.90024,16.04351 -9.96508,27.59173 -1.70575,9.92063 -1.70575,17.12858 0.0897,21.39135 1.4364,3.64273 1.61595,4.34027 12.83789,45.26284 11.76059,42.93769 15.17207,62.85646 15.98004,93.00584 l 0.53867,18.60117 -6.10474,1.47259 c -7.18206,1.78261 -10.41397,3.87525 -13.01746,8.68055 -2.42395,4.34026 -2.78306,14.26089 -0.62843,17.82613 1.4364,2.40265 5.38653,5.73533 8.25936,7.13044 1.43639,0.69754 0.80797,0.85254 -3.68082,0.93006 -13.46055,-3.60271 152.41987,0.14859 136.90768,0 h -5.56609 l 2.60349,-1.78262 c 6.28429,-4.18525 8.4389,-7.90551 8.4389,-14.49341 0,-5.42532 -1.61595,-9.14556 -5.56609,-12.86582 -3.05236,-2.79015 -4.84788,-3.72023 -10.32419,-5.19283 -5.74563,-1.47256 -6.55361,-1.9376 -6.1945,-3.25519 0.26933,-0.85257 0.71819,-3.87522 1.0773,-6.74291 l 0.62843,-5.11534 3.77057,-1.31757 c 12.11969,-3.95276 19.1222,-18.83368 16.60848,-35.1872 -1.16708,-8.06051 -5.02743,-17.90363 -9.06733,-23.794 -3.59103,-5.11533 -7.45137,-9.06809 -25.49626,-26.04164 -26.12465,-24.49152 -26.03489,-24.33652 -25.76554,-28.13425 0.35909,-7.13045 6.10472,-16.43104 12.20946,-19.76376 4.57854,-2.40264 8.43889,-2.63516 20.10969,-1.24007 5.56609,0.69754 13.10725,1.24007 16.78804,1.24007 5.74564,0 6.91271,-0.2325 9.33665,-2.01512 1.79551,-1.31758 3.23192,-3.41023 4.21946,-6.12289 1.25683,-3.72024 1.25683,-4.41778 0,-6.4329 -0.80798,-1.31759 -2.78305,-3.1002 -4.57856,-4.03026 -1.70574,-0.93006 -3.14214,-2.17014 -3.14214,-2.79017 0,-1.24009 3.41146,-3.48773 8.97753,-5.89037 5.5661,-2.48016 6.2843,-4.80531 3.14216,-10.38565 -1.52618,-2.71268 -3.95013,-5.34784 -6.73316,-7.20796 -4.0399,-2.79017 -5.02743,-3.02269 -16.33916,-4.57279 -6.55359,-0.85255 -18.76307,-2.40264 -27.20197,-3.3327 -12.92765,-1.47259 -15.7107,-2.01513 -18.22443,-3.64273 -2.78302,-1.78262 -3.68078,-1.93762 -14.36409,-2.01513 -14.00496,-0.0775 -23.16208,-2.17013 -26.21446,-5.89037 -1.07727,-1.24008 -3.05235,-2.40265 -4.75807,-2.71267 -4.21947,-0.85255 -7.81049,-2.55766 -12.02994,-5.89037 -3.2319,-2.55766 -4.39898,-3.02269 -7.63091,-3.02269 -2.15461,0.0775 -4.93764,0.54253 -6.28428,1.24008 z"
     id="path249-3"
     style="fill:#5a5a5a;fill-opacity:1;stroke:#000000;stroke-width:8.60928;stroke-linecap:round;stroke-linejoin:bevel;stroke-dasharray:none;stroke-opacity:1;paint-order:fill markers stroke"
     sodipodi:nodetypes="ccccccccccscsccsccccccccccccsccccsccccccccccccc" />
  <path
     style="fill:#d1bba3;fill-opacity:1;stroke:#000000;stroke-width:8.60928;stroke-linecap:round;stroke-linejoin:bevel;stroke-dasharray:none;stroke-opacity:1;paint-order:fill markers stroke"
     d="m 385.0831,582.64432 127.77331,0.71941"
     id="path3946-8" />
  <path
     style="fill:#d1bba3;fill-opacity:1;stroke:#000000;stroke-width:8.60928;stroke-linecap:round;stroke-linejoin:bevel;stroke-dasharray:none;stroke-opacity:1;paint-order:fill markers stroke"
     d="m 394.81308,548.00894 104.88385,-0.67825"
     id="path7236-7" />
  <ellipse
     style="fill:#d1bba3;fill-opacity:1;stroke:#000000;stroke-width:8.60928;stroke-linecap:round;stroke-linejoin:bevel;stroke-dasharray:none;stroke-opacity:1;paint-order:fill markers stroke"
     id="path7621-4"
     cx="445.96686"
     cy="356.20062"
     rx="5.6252332"
     ry="2.0099437" />
  <path
     style="fill:#d1bba3;fill-opacity:1;stroke:#000000;stroke-width:8;stroke-linecap:round;stroke-linejoin:bevel;stroke-dasharray:none;stroke-opacity:1;paint-order:fill markers stroke"
     d="m 114.66763,434.98895 66.03267,0.27578"
     id="path9120-2" />
  <path
     style="fill:#5a5a5a;fill-opacity:1;stroke:#000000;stroke-width:8;stroke-linecap:round;stroke-linejoin:bevel;stroke-dasharray:none;stroke-opacity:1;paint-order:fill markers stroke"
     d="m 116.79152,397.54193 c 20.93373,10.3814 42.72516,7.10982 64.83418,-0.36372"
     id="path9122-7"
     sodipodi:nodetypes="cc" />
</svg>
