<?xml version="1.0" encoding="UTF-8" standalone="no"?>
<!-- Created with Inkscape (http://www.inkscape.org/) -->

<svg
   width="248.55876"
   height="246.21111"
   viewBox="0 0 65.764506 65.143355"
   version="1.1"
   id="svg5"
   inkscape:export-filename="support.svg"
   inkscape:export-xdpi="96"
   inkscape:export-ydpi="96"
   xmlns:inkscape="http://www.inkscape.org/namespaces/inkscape"
   xmlns:sodipodi="http://sodipodi.sourceforge.net/DTD/sodipodi-0.dtd"
   xmlns="http://www.w3.org/2000/svg"
   xmlns:svg="http://www.w3.org/2000/svg">
  <sodipodi:namedview
     id="namedview7"
     pagecolor="#ffffff"
     bordercolor="#000000"
     borderopacity="0.25"
     inkscape:showpageshadow="2"
     inkscape:pageopacity="0.0"
     inkscape:pagecheckerboard="true"
     inkscape:deskcolor="#d1d1d1"
     inkscape:document-units="px"
     showgrid="false"
     shape-rendering="auto"
     showborder="true"
     showguides="true" />
  <defs
     id="defs2" />
  <g
     inkscape:label="Layer 1"
     inkscape:groupmode="layer"
     id="layer1"
     transform="translate(-1.3673382,-1.1590684)">
    <path
       id="path111"
       style="fill:#b5936e;fill-opacity:1;stroke-width:0.264583"
       d="m 15.173756,5.0951699 c -0.01102,-0.0045 -0.02224,-0.00896 -0.03363,-0.013379 C 13.682598,4.516801 13.947084,6.5223266 12.38429,6.5581157 10.821497,6.5939049 10.993938,4.578305 9.5638015,5.209425 8.1336645,5.8405451 9.7388696,7.0717402 8.6591144,8.2021088 7.5793593,9.3324774 6.2759916,7.7853372 5.7110014,9.242866 c -0.5649903,1.457529 1.4406031,1.192997 1.4763922,2.755791 0.035789,1.562793 -1.9798077,1.390353 -1.3486877,2.82049 0.6311201,1.430137 1.8622907,-0.175 2.9926593,0.904755 1.1303685,1.079755 -0.4168374,2.383111 1.0406913,2.948101 1.4575285,0.564991 1.1930855,-1.440643 2.7558785,-1.476432 1.562794,-0.03579 1.390352,1.979811 2.820489,1.348691 1.430137,-0.63112 -0.175068,-1.862315 0.904687,-2.992684 1.079755,-1.130368 2.383081,0.41688 2.948071,-1.040649 0.56499,-1.457529 -1.440561,-1.193105 -1.47635,-2.755899 -0.03579,-1.562793 1.979807,-1.390353 1.348687,-2.8204896 C 18.542399,7.5044034 17.311187,9.1096482 16.180818,8.0298931 15.059281,6.9585736 16.57366,5.6671348 15.173756,5.0951699 Z m -1.609513,4.125552 a 3.1268114,2.9598145 28.608021 0 1 1.81928,3.9332591 3.1268114,2.9598145 28.608021 0 1 -3.972155,1.586321 3.1268114,2.9598145 28.608021 0 1 -1.819279,-3.93326 3.1268114,2.9598145 28.608021 0 1 3.972154,-1.5863201 z"
       transform="matrix(4.2035576,-1.6787241,1.6395694,4.1425113,-37.793485,5.5248536)" />
  </g>
</svg>
