<?xml version="1.0" encoding="UTF-8" standalone="no"?>
<!-- Created with Inkscape (http://www.inkscape.org/) -->

<svg
   width="256"
   height="256"
   viewBox="0 0 256 256"
   version="1.1"
   id="svg5"
   sodipodi:docname="hide.svg"
   inkscape:version="1.2.2 (b0a8486541, 2022-12-01)"
   xmlns:inkscape="http://www.inkscape.org/namespaces/inkscape"
   xmlns:sodipodi="http://sodipodi.sourceforge.net/DTD/sodipodi-0.dtd"
   xmlns="http://www.w3.org/2000/svg"
   xmlns:svg="http://www.w3.org/2000/svg">
  <sodipodi:namedview
     id="namedview7"
     pagecolor="#505050"
     bordercolor="#ffffff"
     borderopacity="1"
     inkscape:showpageshadow="0"
     inkscape:pageopacity="0"
     inkscape:pagecheckerboard="1"
     inkscape:deskcolor="#505050"
     inkscape:document-units="px"
     showgrid="false"
     inkscape:zoom="2.8284271"
     inkscape:cx="119.8546"
     inkscape:cy="126.92567"
     inkscape:window-width="1920"
     inkscape:window-height="1005"
     inkscape:window-x="0"
     inkscape:window-y="0"
     inkscape:window-maximized="1"
     inkscape:current-layer="layer1" />
  <defs
     id="defs2" />
  <g
     inkscape:label="Layer 1"
     inkscape:groupmode="layer"
     id="layer1"
     style="display:inline">
    <ellipse
       style="fill:#41312f;fill-opacity:1;stroke:#000000;stroke-width:7.10452;stroke-linecap:square;stroke-linejoin:bevel;stroke-miterlimit:9.8;stroke-opacity:0"
       id="path7653"
       cx="132.27519"
       cy="128.54419"
       rx="35.445244"
       ry="32.838982" />
    <path
       id="path7651"
       style="fill:#41312f;stroke:#000000;stroke-width:9.07052;stroke-linecap:square;stroke-linejoin:bevel;stroke-miterlimit:9.8;stroke-opacity:1"
       d="M 128.58789,54.988281 A 122.58461,72.869781 0 0 0 6.0039062,127.85938 122.58461,72.869781 0 0 0 128.58789,200.72852 122.58461,72.869781 0 0 0 251.17188,127.85938 122.58461,72.869781 0 0 0 128.58789,54.988281 Z m 4.33984,20.296875 A 59.635517,53.679466 0 0 1 192.5625,128.96289 59.635517,53.679466 0 0 1 132.92773,182.64258 59.635517,53.679466 0 0 1 73.292969,128.96289 59.635517,53.679466 0 0 1 132.92773,75.285156 Z" />
    <rect
       style="fill:#41312f;fill-opacity:1;stroke:#000000;stroke-width:6.24909;stroke-linecap:square;stroke-linejoin:bevel;stroke-miterlimit:9.8;stroke-dasharray:none;stroke-opacity:1"
       id="rect19074"
       width="26.749636"
       height="260.76035"
       x="166.88939"
       y="-148.72813"
       transform="matrix(0.65444856,0.75610653,-0.76298812,0.6464125,0,0)" />
  </g>
</svg>
