<?xml version="1.0" encoding="UTF-8" standalone="no"?>
<svg
   version="1.0"
   width="1800"
   height="600"
   viewBox="0 0 1800 600"
   preserveAspectRatio="xMidYMid"
   id="svg79"
   sodipodi:docname="sheet.svg"
   inkscape:version="1.2.2 (b0a8486541, 2022-12-01)"
   xmlns:inkscape="http://www.inkscape.org/namespaces/inkscape"
   xmlns:sodipodi="http://sodipodi.sourceforge.net/DTD/sodipodi-0.dtd"
   xmlns="http://www.w3.org/2000/svg"
   xmlns:svg="http://www.w3.org/2000/svg">
  <defs
     id="defs83" />
  <sodipodi:namedview
     id="namedview81"
     pagecolor="#505050"
     bordercolor="#ffffff"
     borderopacity="1"
     inkscape:showpageshadow="0"
     inkscape:pageopacity="0"
     inkscape:pagecheckerboard="1"
     inkscape:deskcolor="#505050"
     inkscape:document-units="px"
     showgrid="false"
     inkscape:zoom="0.70710678"
     inkscape:cx="893.07586"
     inkscape:cy="226.27417"
     inkscape:window-width="1920"
     inkscape:window-height="1005"
     inkscape:window-x="0"
     inkscape:window-y="0"
     inkscape:window-maximized="1"
     inkscape:current-layer="svg79" />
  <metadata
     id="metadata63">
Created by potrace 1.15, written by Peter Selinger 2001-2017
</metadata>
  <path
     d="m 1631.6647,13.266079 c -0.4628,0.332407 -0.6942,2.077549 -0.6942,5.193878 v 4.695269 h -6.5967 c -4.8607,0 -6.7124,0.166204 -7.2332,0.581714 -0.463,0.373962 -0.6366,2.908578 -0.5208,8.185562 l 0.1737,7.645387 7.1174,0.124655 7.0596,0.124653 v 4.113555 4.155105 h -22.8569 c -14.6977,0 -22.8568,0.166209 -22.8568,0.415511 0,0.207758 3.414,8.975026 7.5804,19.404346 4.1662,10.47086 9.1427,23.060834 11.0523,27.963846 1.9673,4.90304 3.7612,9.18279 4.1085,9.4321 0.2892,0.29086 1.5044,0.54017 2.7196,0.54017 h 2.1988 l -0.2892,2.61772 c -3.4311,4.76134 -5.3082,7.01202 -6.2494,11.67584 -0.5209,2.99166 -0.1158,4.07199 2.3146,6.02489 l 2.0253,1.57895 -3.2405,0.2493 c -11.6888,0.87257 -13.8298,11.75896 -3.0089,15.04149 1.273,0.33241 3.8768,0.62326 6.1915,0.62326 3.7034,0 4.1663,0.0832 5.0342,1.03878 4.0507,4.40441 4.5137,17.9085 1.331,35.94167 -3.0669,17.61763 -9.2584,35.98321 -13.8876,41.34329 l -1.8518,2.07756 0.4052,6.93903 0.405,6.93903 -2.1989,0.66481 c -3.0669,0.91412 -5.2079,2.49306 -6.3652,4.73682 -0.5208,1.03877 -1.736,2.90857 -2.604,4.15511 -2.8353,3.90579 -1.9674,8.0609 2.4304,11.34343 l 2.6618,1.99445 h -4.1663 c -2.8354,0 -4.3399,0.16621 -4.8028,0.58171 -0.463,0.41551 -0.5209,3.32408 -0.2314,10.88637 l 0.4629,10.34623 h 57.5759 57.5759 l -0.1156,-10.55398 c -0.1158,-7.93625 -0.3472,-10.67862 -0.8681,-10.92792 -0.405,-0.1662 -2.4304,-0.33241 -4.5135,-0.33241 h -3.7612 l 1.9096,-0.87257 c 3.8769,-1.78669 5.7865,-7.10524 3.8769,-10.76172 -0.5208,-1.03878 -1.1573,-2.70083 -1.3887,-3.73959 -0.5208,-2.20221 -1.7361,-3.98891 -3.6455,-5.27699 -1.5046,-1.03878 -5.0922,-2.20222 -6.7123,-2.20222 -0.9838,0 -1.1574,-0.45705 -1.5046,-3.82269 -0.1736,-2.07755 -0.3473,-5.23543 -0.3473,-7.02212 0,-3.07478 -0.058,-3.24099 -1.9094,-4.57063 -3.6456,-2.61771 -7.6961,-11.38498 -10.2422,-22.1467 -5.3815,-22.64532 -5.0343,-47.49286 0.7522,-54.88895 l 1.3309,-1.66204 5.4393,-0.20776 c 6.018,-0.24931 8.2169,-0.83103 10.5894,-2.90858 2.8933,-2.45151 3.2404,-6.1911 0.8679,-9.05812 -1.4466,-1.70359 -5.3235,-3.32408 -8.8533,-3.6565 -2.6619,-0.29085 -2.7197,-0.29085 -1.5045,-0.95567 2.546,-1.41273 3.5297,-2.99168 3.5297,-5.90026 0,-2.16065 -0.2892,-3.03322 -1.273,-4.11354 -1.2133,-3.92526 -8.6431,-11.2061 -4.3977,-11.21878 0.9258,0 1.7938,-0.29086 2.0831,-0.74792 0.5208,-0.70637 22.6832,-56.093927 22.6832,-56.717197 0,-0.166202 -10.0107,-0.290856 -22.2781,-0.290856 h -22.2781 v -4.155105 -4.155104 h 6.2495 c 4.1083,0 6.4808,-0.166203 6.9437,-0.498616 0.9837,-0.706368 0.9837,-14.916822 0,-15.62319 -0.4629,-0.332412 -2.8354,-0.498616 -6.9437,-0.498616 h -6.2495 v -4.695269 c 0,-3.116329 -0.2315,-4.861471 -0.6944,-5.193878 -0.5208,-0.373962 -4.3979,-0.498616 -13.7719,-0.498616 -9.3742,0 -13.2512,0.124654 -13.7721,0.498616 z"
     id="path243"
     style="fill:#d1bba3;fill-opacity:1;stroke:#000000;stroke-width:8;stroke-linecap:round;stroke-linejoin:bevel;stroke-dasharray:none;stroke-opacity:1;paint-order:fill markers stroke"
     sodipodi:nodetypes="sscscccccccsscccscccccccscccccccccccssccccccscccccscscccccccccscccsscccsssscsssss" />
  <path
     d="m 1344.1666,13.38491 c -3.6447,0.897559 -5.6328,1.884874 -7.7536,3.904381 -2.1205,1.974628 -3.6447,5.654617 -2.982,7.404856 l 0.3976,1.077071 h -26.6409 -26.6407 l 0.3978,1.436093 c 1.1928,4.218525 25.5142,60.719829 26.1768,60.764707 0.3976,0.04488 1.9881,0.08976 3.4461,0.134634 2.3856,0.04489 2.6507,0.134634 1.8555,0.762925 -5.5417,9.138653 -5.5949,3.522902 -7.6873,15.123863 -0.3977,3.18634 0.6626,5.20583 3.5785,6.86633 l 1.6568,0.94243 -3.7775,0.26925 c -6.9582,0.49367 -11.5971,3.76978 -11.5971,8.12293 0,2.51317 0.9277,4.17365 3.1809,5.78924 2.9159,2.06439 5.368,2.73757 11.3322,3.00683 5.3681,0.2244 5.6992,0.26927 6.7595,1.57073 6.4282,7.53947 3.0485,40.74914 -6.6932,67.09249 -3.1809,8.61655 -7.2897,15.97654 -9.278,16.82921 -0.4639,0.1795 -0.6625,3.14146 -0.6625,8.39219 l 0.1324,8.07802 -2.5844,0.80781 c -3.0486,0.94243 -6.5609,3.6351 -7.2234,5.56485 -0.2653,0.76292 -1.1932,2.15414 -2.1208,3.09658 -1.3255,1.30146 -1.7893,2.51317 -1.9881,4.6673 -0.3314,3.63511 0.9941,6.19316 4.6388,8.61656 l 2.651,1.84001 h -4.5066 c -2.518,0 -4.9701,0.17949 -5.5002,0.40388 -0.7954,0.31415 -0.8616,2.24389 -0.464,11.53364 0.2651,6.14826 0.729,11.30923 0.9941,11.53363 0.265,0.17952 29.9541,0.26927 66.0715,0.22438 l 65.5414,-0.13464 -0.2651,-11.21947 c -0.1326,-6.59706 -0.4639,-11.44388 -0.8616,-11.80289 -0.3977,-0.31415 -2.2531,-0.53853 -4.6389,-0.53853 h -3.9761 l 2.0543,-1.34635 c 2.8497,-1.97462 4.904,-5.96877 4.4401,-8.66144 -0.1988,-1.21169 -0.7952,-2.78243 -1.3918,-3.54535 -0.5301,-0.76292 -0.9939,-2.01951 -0.9939,-2.73756 0,-2.01949 -2.4519,-5.11607 -5.1028,-6.46241 -1.2591,-0.6732 -3.6449,-1.43611 -5.368,-1.70536 l -3.1147,-0.53854 -0.1988,-7.31511 -0.1987,-7.35996 -2.5846,-1.92976 c -1.3918,-1.07708 -2.9823,-2.82733 -3.5124,-3.85951 -0.5964,-1.03219 -1.7893,-3.36584 -2.7171,-5.16096 -4.8378,-9.11022 -8.6152,-26.97162 -9.4766,-44.07012 -0.5965,-13.91217 1.2591,-24.86237 5.1691,-29.6643 l 1.5905,-1.97462 6.2957,-0.2244 c 6.5607,-0.26926 9.0789,-0.85269 11.7299,-2.78244 1.9879,-1.43608 2.8496,-3.18633 2.8496,-5.92389 0,-4.2185 -4.639,-7.53948 -11.5973,-8.16779 l -3.0484,-0.31413 2.0544,-1.43611 c 2.5182,-1.75021 3.4459,-3.85948 2.9158,-6.73168 -1.2541,-8.483694 -10.3485,-15.435963 -7.6873,-15.572638 2.9821,-0.08976 3.3134,-0.134635 3.7773,-0.403902 0.6628,-0.493657 26.1105,-61.168609 25.7793,-61.527632 -0.1989,-0.179512 -11.9288,-0.359023 -26.0444,-0.359023 h -25.7127 l -0.067,-2.423407 c -0.067,-7.225347 -10.868,-12.341431 -20.8086,-9.962901 z"
     id="path245"
     style="fill:#d1bba3;fill-opacity:1;stroke:#000000;stroke-width:8;stroke-linecap:round;stroke-linejoin:bevel;stroke-dasharray:none;stroke-opacity:1;paint-order:fill markers stroke"
     sodipodi:nodetypes="scccccccccccccscccccccccccccscccccccsccccscccccccccccccscccccccsccss" />
  <path
     d="m 744.35071,13.65445 c -7.11111,0.955015 -14.00675,4.272425 -18.17285,8.595115 -3.87881,4.171891 -5.02809,7.28825 -4.66893,12.666476 0.28733,4.825328 1.65208,7.740632 5.31537,11.409885 l 1.72392,1.759236 -2.94499,2.261867 c -12.42652,9.349065 -18.81934,22.719241 -18.81934,39.406831 0,11.5104 2.51405,20.05526 8.7632,29.65563 2.08304,3.16662 2.22671,3.56874 1.07744,4.02111 -3.08867,1.30686 -4.88441,2.56345 -5.74637,4.07136 -1.29291,2.16134 -1.29291,7.38879 0,9.19828 1.00563,1.35713 1.00563,1.4074 -1.36475,2.01057 -1.29292,0.30157 -3.37599,1.35711 -4.52526,2.26186 -4.45343,3.56872 -3.44783,11.30937 1.72392,13.72202 l 2.01122,0.90474 -4.45343,0.30159 c -7.61393,0.50265 -12.06737,3.51847 -12.92931,8.79616 -0.43098,2.96557 0.93379,5.4285 4.23793,7.38879 3.44782,2.11107 6.96747,2.86504 13.07297,2.86504 4.45345,0 4.81257,0.10046 6.32101,1.55817 1.93938,1.91003 3.51964,5.52903 3.51964,8.09247 0,5.32796 -6.10551,12.86753 -15.80249,19.55263 l -6.24917,4.27242 0.35915,8.54485 0.35915,8.59511 -3.37599,1.1058 c -3.73512,1.30686 -6.24915,3.36767 -7.68575,6.33325 -0.57464,1.1058 -1.58024,2.56345 -2.22671,3.26713 -0.7183,0.7037 -1.65208,2.56345 -2.15489,4.12164 -1.22109,3.97085 0.50281,7.84116 4.81257,10.85697 l 3.01684,2.11109 h -5.24355 c -3.08866,0 -5.45903,0.25133 -5.74637,0.5529 -0.57462,0.65343 -0.35913,24.32768 0.2155,25.38322 0.28732,0.60316 10.41527,0.70369 71.61399,0.60316 l 71.18301,-0.15079 v -12.71674 c 0,-10.75644 -0.14366,-12.767 -1.07745,-13.16912 -0.57462,-0.2513 -3.08866,-0.50263 -5.60267,-0.50263 h -4.52528 l 2.65769,-1.60844 c 1.50842,-0.90475 3.23234,-2.56346 3.95062,-3.66926 1.58026,-2.41267 1.72391,-6.73535 0.28732,-9.55012 -0.57463,-1.10582 -1.07744,-2.36241 -1.07744,-2.7645 -0.0718,-4.52375 -7.32662,-10.05278 -13.14479,-10.05278 h -1.7239 l -0.43099,-8.64536 -0.43098,-8.64538 -2.01122,-1.00528 c -3.87881,-1.96028 -10.9899,-6.98665 -13.07296,-9.29879 -6.24917,-6.83587 -5.67453,-16.63733 1.22109,-21.8145 1.65208,-1.2566 2.29854,-1.35712 7.0393,-1.35712 8.61953,0 13.50395,-1.75924 16.16162,-5.78034 1.65207,-2.46293 1.72392,-4.7248 0.28733,-7.18773 -2.22673,-3.66925 -7.32662,-6.13218 -12.64199,-6.13218 h -2.94501 l 2.22673,-1.45765 c 2.87315,-1.91003 3.66327,-3.46819 3.66327,-7.38878 0,-4.77506 -2.7295,-7.69037 -7.97305,-8.49458 -1.72391,-0.25132 -2.08305,-0.50264 -1.65207,-1.15606 0.35914,-0.50265 0.71828,-2.91532 0.86193,-5.42852 l 0.2155,-4.57399 -2.37038,-1.75925 c -1.29293,-0.95499 -2.80134,-1.85974 -3.30415,-1.96027 -0.64646,-0.15079 -0.14366,-1.35712 1.65208,-4.37293 2.65769,-4.42324 4.66892,-9.60042 6.10549,-15.43102 1.14928,-4.97611 1.00563,-17.692851 -0.2873,-22.870024 -0.64647,-2.3624 -1.14927,-4.574006 -1.14927,-4.925856 0,-0.301578 -0.21551,-0.603165 -0.50281,-0.603165 -0.35916,0 -4.27957,5.58181 -10.74423,10.708724 -6.53648,5.126904 -9.84825,10.943691 -13.82144,7.888884 -0.53973,-0.414972 -10.57025,-7.426502 -8.69139,-5.52901 0.18803,0.189904 2.97536,-10.698716 12.21862,-15.051538 l 13.63251,-11.074369 0.65397,-0.111802 c -2.65771,-3.669261 -6.60832,-7.841155 -10.12796,-10.655929 l -2.51405,-2.010554 2.51405,-2.261866 c 4.6689,-4.322689 5.45903,-6.182449 5.53086,-12.616221 0,-5.478755 -0.14368,-5.931127 -2.29855,-9.097745 C 772.07689,16.720545 758.07015,11.79469 744.35071,13.65445 Z"
     id="path247"
     style="fill:#d1bba3;fill-opacity:1;stroke:#000000;stroke-width:8;stroke-linecap:round;stroke-linejoin:bevel;stroke-dasharray:none;stroke-opacity:1;paint-order:normal"
     sodipodi:nodetypes="ccccccscccccccccccscsccccccccscsccccscscccccsccccccsccsccscccccccccsscsscccsccccc" />
  <path
     id="path251"
     style="fill:#d1bba3;fill-opacity:1;stroke:#000000;stroke-width:8;stroke-linecap:round;stroke-linejoin:bevel;stroke-dasharray:none;stroke-opacity:1;paint-order:fill markers stroke"
     d="m 1049.421,17.716216 c -4.8354,0 -7.5422,0.254697 -11.6936,0.257131 l -0.1615,17.091673 -27.1576,0.07863 0.091,-16.788921 c -17.81315,0.123347 -26.41057,-0.141054 -27.40771,0.507178 -1.54259,1.002745 -1.76342,4.440217 -1.54303,29.50872 l 0.33132,28.43575 3.41533,1.145709 3.52514,1.074366 -2.09188,1.790613 c -3.52595,2.864978 -5.73082,9.02498 -5.17991,13.895432 0.99156,7.377313 6.50085,12.462683 16.52775,15.399263 l 5.17999,1.50384 -2.0939,2.29141 c -3.96671,4.22585 -2.09393,12.60704 3.4152,15.11389 1.9832,0.85949 1.9837,1.36034 -1.2117,14.8257 -7.71293,32.23095 -16.08789,53.35998 -27.32663,68.83085 -2.31383,3.29471 -4.62786,6.80433 -4.9583,7.87866 -0.44072,1.00276 -2.64364,2.65099 -5.17792,3.72534 -3.21232,3.5322 -3.88272,4.41028 -4.27503,7.17106 0.18299,1.9175 -1.07247,5.66492 0.91668,7.00956 1.70866,3.52267 4.459,5.73012 8.0951,8.23699 l 2.20375,1.64792 h -6.16991 c -9.58612,0 -9.47548,-0.21543 -9.47548,16.97443 0,8.1652 0.55091,15.39926 1.10183,16.11551 0.99154,1.2176 5.17791,1.28979 89.46911,1.28979 67.3228,0 88.8092,-0.21571 89.8008,-0.86034 1.873,-1.21762 1.873,-31.44286 0,-32.66048 -0.7714,-0.50134 -3.3053,-0.85892 -5.6191,-0.85892 h -4.2977 l 2.7545,-2.14871 c 4.628,-3.50961 6.6111,-8.02251 6.0602,-13.10786 -0.6612,-5.08533 -2.533,-7.95001 -7.4912,-11.17314 l -3.5272,-2.22006 h 2.8665 c 1.5425,0 2.8643,-0.0722 2.8643,-0.21542 0,-0.14327 -3.3068,-3.43721 -7.3835,-7.37647 -8.5945,-8.38007 -11.4588,-12.39136 -18.2903,-25.35537 -10.0267,-19.1237 -17.2982,-41.2557 -17.2982,-52.64399 0,-3.58119 0.3302,-4.44128 2.3135,-5.22915 4.9584,-2.00545 7.1625,-10.59986 3.7466,-14.46757 -2.3139,-2.57846 -2.0947,-2.72257 3.084,-3.72531 7.162,-1.36084 15.5375,-7.16189 17.3003,-11.96074 2.0934,-5.873187 0.9907,-12.319124 -3.0861,-16.544968 l -3.3055,-3.438533 3.8564,-0.358121 c 7.2721,-0.787868 6.9425,0.717021 6.9425,-30.296302 l -0.4059,-29.661721 2.5265,0.08081 c -25.5847,-0.382493 -13.1919,-0.267132 -28.5363,-0.263806 l 0.175,16.285262 -26.1007,0.111098 -0.167,-16.84991 c -4.911,-0.0035 -11.2109,-0.07077 -17.1292,-0.07077 z"
     sodipodi:nodetypes="sccccsccccccccccccccccccsscsssscccccssccscccccccsccccccss" />
  <path
     d="m 139.97969,29.31462 c -19.06321,3.436912 -32.77368,15.186332 -36.81169,31.41173 -3.00505,12.308921 1.1269,24.61784 11.73842,34.28915 l 4.13191,3.75663 -3.75628,0.79926 c -8.92121,2.07813 -15.21298,8.55232 -17.56067,18.14367 -1.69034,6.71397 -1.78423,15.66591 -0.28173,16.94474 0.75126,0.63945 4.41365,0.95916 10.32981,0.95916 h 9.20293 l -0.46955,2.15806 c -0.18782,1.27883 -0.65735,4.63583 -0.93907,7.51323 -1.3147,13.1082 -9.67245,27.41533 -23.1012,39.40453 -5.822258,5.27526 -9.229798,6.63018 -11.445359,8.34314 -7.939734,6.13859 -7.968181,7.67658 -9.940978,13.24444 0.652837,5.04744 -0.07162,15.4873 5.42208,16.85782 3.380673,0.63943 3.944109,1.9982 0.751265,1.9982 -4.038014,0 -4.413648,1.11899 -4.413648,14.86662 0,10.71036 0.281721,13.18813 1.502515,14.2272 1.314707,1.11899 9.0151,1.27884 71.275675,1.27884 62.26056,0 69.96093,-0.15985 71.27566,-1.27884 1.22078,-1.03907 1.50252,-3.51684 1.50252,-14.2272 0,-13.42791 -0.37564,-14.86662 -4.03803,-14.86662 -0.93907,0 -1.59642,-0.23978 -1.40861,-0.63941 2.81722,-4.63584 3.94412,-7.91288 4.31974,-12.94835 0.56345,-8.47237 -0.75126,-11.98922 -6.1979,-16.14547 -13.05309,-10.07093 -20.7535,-17.9039 -25.9184,-26.7759 -5.16491,-8.79209 -6.3857,-13.18812 -6.57351,-23.65871 l -0.18781,-9.35158 h 10.98716 c 8.63947,0 11.17494,-0.2398 12.11402,-1.19894 1.78424,-1.83833 0.56346,-15.74582 -1.78423,-21.26086 -3.38066,-7.67309 -9.76635,-12.54871 -18.12411,-13.90748 l -3.38067,-0.5595 4.03802,-3.59675 c 19.81445,-17.584181 15.49472,-46.837861 -8.82729,-60.18584 -9.109,-4.875617 -23.85246,-7.433312 -33.43099,-5.59497 z"
     id="path253"
     style="fill:#d1bba3;fill-opacity:1;stroke:#000000;stroke-width:8;stroke-linecap:round;stroke-linejoin:bevel;stroke-dasharray:none;stroke-opacity:1;paint-order:fill markers stroke"
     sodipodi:nodetypes="ccccccssccccsccsssssssccccccsccccccc" />
  <path
     style="fill:#d1bba3;fill-opacity:1;stroke:#000000;stroke-width:8;stroke-linecap:round;stroke-linejoin:bevel;stroke-dasharray:none;stroke-opacity:1;paint-order:fill markers stroke"
     d="m 80.151842,224.12453 132.105198,0.87435 h -0.41089"
     id="path3944" />
  <path
     style="fill:#d1bba3;fill-opacity:1;stroke:#000000;stroke-width:8;stroke-linecap:round;stroke-linejoin:bevel;stroke-dasharray:none;stroke-opacity:1;paint-order:fill markers stroke"
     d="m 970.79414,248.01916 158.13746,0.31343"
     id="path3950" />
  <path
     style="fill:#d1bba3;fill-opacity:1;stroke:#000000;stroke-width:8;stroke-linecap:round;stroke-linejoin:bevel;stroke-dasharray:none;stroke-opacity:1;paint-order:fill markers stroke"
     d="m 688.59391,253.22661 122.10493,0.43987"
     id="path4050" />
  <path
     style="fill:#d1bba3;fill-opacity:1;stroke:#000000;stroke-width:8;stroke-linecap:round;stroke-linejoin:bevel;stroke-dasharray:none;stroke-opacity:1;paint-order:fill markers stroke"
     d="m 1288.0856,255.23981 122.3992,0.19621"
     id="path4052" />
  <path
     style="fill:#d1bba3;fill-opacity:1;stroke:#000000;stroke-width:8;stroke-linecap:round;stroke-linejoin:bevel;stroke-dasharray:none;stroke-opacity:1;paint-order:fill markers stroke"
     d="m 1595.8021,260.8058 97.9869,0.1818"
     id="path4054" />
  <path
     style="fill:#d1bba3;fill-opacity:1;stroke:#000000;stroke-width:8;stroke-linecap:round;stroke-linejoin:bevel;stroke-dasharray:none;stroke-opacity:1;paint-order:fill markers stroke"
     d="M 986.22225,77.920623 1111.334,78.312371"
     id="path4086" />
  <path
     style="fill:#d1bba3;fill-opacity:1;stroke:#000000;stroke-width:8;stroke-linecap:round;stroke-linejoin:bevel;stroke-dasharray:none;stroke-opacity:1;paint-order:fill markers stroke"
     d="m 1613.779,143.62825 63.1726,0.18182"
     id="path7163" />
  <path
     style="fill:#d1bba3;fill-opacity:1;stroke:#000000;stroke-width:8;stroke-linecap:round;stroke-linejoin:bevel;stroke-dasharray:none;stroke-opacity:1;paint-order:fill markers stroke"
     d="m 1610.4875,127.81064 h 69.7555"
     id="path7165" />
  <path
     style="fill:#d1bba3;fill-opacity:1;stroke:#000000;stroke-width:8;stroke-linecap:round;stroke-linejoin:bevel;stroke-dasharray:none;stroke-opacity:1;paint-order:fill markers stroke"
     d="m 1612.934,105.78181 66.7614,-0.0772"
     id="path7169" />
  <path
     style="fill:#d1bba3;fill-opacity:1;stroke:#000000;stroke-width:8;stroke-linecap:round;stroke-linejoin:bevel;stroke-dasharray:none;stroke-opacity:1;paint-order:fill markers stroke"
     d="m 1307.5042,87.955836 84.0318,0.199445"
     id="path7171" />
  <path
     style="fill:#d1bba3;fill-opacity:1;stroke:#000000;stroke-width:8;stroke-linecap:round;stroke-linejoin:bevel;stroke-dasharray:none;stroke-opacity:1;paint-order:fill markers stroke"
     d="m 1329.2151,25.811731 c 12.7089,0.28313 28.1187,0.237668 41.9426,0.188714"
     id="path7173"
     sodipodi:nodetypes="cc" />
  <path
     style="fill:#d1bba3;fill-opacity:1;stroke:#000000;stroke-width:8;stroke-linecap:round;stroke-linejoin:bevel;stroke-dasharray:none;stroke-opacity:1;paint-order:fill markers stroke"
     d="m 1627.0427,48.01997 37.2781,0.08715"
     id="path7175" />
  <path
     style="fill:#d1bba3;fill-opacity:1;stroke:#000000;stroke-width:8;stroke-linecap:round;stroke-linejoin:bevel;stroke-dasharray:none;stroke-opacity:1;paint-order:fill markers stroke"
     d="m 1310.2844,129.25541 81.9551,-0.26365"
     id="path7202" />
  <path
     style="fill:#d1bba3;fill-opacity:1;stroke:#000000;stroke-width:8;stroke-linecap:round;stroke-linejoin:bevel;stroke-dasharray:none;stroke-opacity:1;paint-order:fill markers stroke"
     d="m 1306.4088,111.60723 88.7266,0.41624"
     id="path7204" />
  <path
     style="fill:#d1bba3;fill-opacity:1;stroke:#000000;stroke-width:8;stroke-linecap:round;stroke-linejoin:bevel;stroke-dasharray:none;stroke-opacity:1;paint-order:fill markers stroke"
     d="m 711.5377,175.36953 82.34616,-0.54982"
     id="path7208" />
  <path
     style="fill:#d1bba3;fill-opacity:1;stroke:#000000;stroke-width:8;stroke-linecap:round;stroke-linejoin:bevel;stroke-dasharray:none;stroke-opacity:1;paint-order:fill markers stroke"
     d="m 707.13751,155.1355 88.00356,0.65981"
     id="path7210" />
  <path
     style="fill:#d1bba3;fill-opacity:1;stroke:#000000;stroke-width:8;stroke-linecap:round;stroke-linejoin:bevel;stroke-dasharray:none;stroke-opacity:1;paint-order:fill markers stroke"
     d="m 711.06625,137.98056 80.77467,0.10996"
     id="path7212" />
  <path
     style="fill:#d1bba3;fill-opacity:1;stroke:#000000;stroke-width:8;stroke-linecap:round;stroke-linejoin:bevel;stroke-dasharray:none;stroke-opacity:1;paint-order:fill markers stroke"
     d="m 717.50937,122.91499 67.7313,0.3299"
     id="path7214" />
  <path
     style="fill:#d1bba3;fill-opacity:1;stroke:#000000;stroke-width:8;stroke-linecap:round;stroke-linejoin:bevel;stroke-dasharray:none;stroke-opacity:1;paint-order:fill markers stroke"
     d="m 728.1955,48.027043 c 15.78052,4.903689 30.99707,4.189076 45.59234,0.445402"
     id="path7216"
     sodipodi:nodetypes="cc" />
  <path
     style="fill:#d1bba3;fill-opacity:1;stroke:#000000;stroke-width:8;stroke-linecap:round;stroke-linejoin:bevel;stroke-dasharray:none;stroke-opacity:1;paint-order:fill markers stroke"
     d="m 698.10914,225.47497 102.00931,-0.31101"
     id="path7218" />
  <path
     style="fill:#d1bba3;fill-opacity:1;stroke:#000000;stroke-width:8;stroke-linecap:round;stroke-linejoin:bevel;stroke-dasharray:none;stroke-opacity:1;paint-order:fill markers stroke"
     d="m 696.99793,208.36804 101.34258,0.31104"
     id="path7220" />
  <path
     style="fill:#d1bba3;fill-opacity:1;stroke:#000000;stroke-width:8;stroke-linecap:round;stroke-linejoin:bevel;stroke-dasharray:none;stroke-opacity:1;paint-order:fill markers stroke"
     d="m 1296.0664,230.71837 h 102.9882"
     id="path7222" />
  <path
     style="fill:#d1bba3;fill-opacity:1;stroke:#000000;stroke-width:8;stroke-linecap:round;stroke-linejoin:bevel;stroke-dasharray:none;stroke-opacity:1;paint-order:fill markers stroke"
     d="m 1298.2437,214.90163 99.2866,0.69373"
     id="path7224" />
  <path
     style="fill:#d1bba3;fill-opacity:1;stroke:#000000;stroke-width:8;stroke-linecap:round;stroke-linejoin:bevel;stroke-dasharray:none;stroke-opacity:1;paint-order:fill markers stroke"
     d="m 1602.0054,238.17026 83.5548,0.18181"
     id="path7226" />
  <path
     style="fill:#d1bba3;fill-opacity:1;stroke:#000000;stroke-width:8;stroke-linecap:round;stroke-linejoin:bevel;stroke-dasharray:none;stroke-opacity:1;paint-order:fill markers stroke"
     d="m 1601.8787,224.17077 82.4155,-0.27271"
     id="path7228" />
  <path
     style="fill:#d1bba3;fill-opacity:1;stroke:#000000;stroke-width:8;stroke-linecap:round;stroke-linejoin:bevel;stroke-dasharray:none;stroke-opacity:1;paint-order:fill markers stroke"
     d="m 971.1697,221.6471 154.0937,-0.66479"
     id="path7230" />
  <path
     style="fill:#d1bba3;fill-opacity:1;stroke:#000000;stroke-width:8;stroke-linecap:round;stroke-linejoin:bevel;stroke-dasharray:none;stroke-opacity:1;paint-order:fill markers stroke"
     d="m 1006.2839,130.56615 h 81.1378 z"
     id="path7232" />
  <path
     style="fill:#d1bba3;fill-opacity:1;stroke:#000000;stroke-width:8;stroke-linecap:round;stroke-linejoin:bevel;stroke-dasharray:none;stroke-opacity:1;paint-order:fill markers stroke"
     d="m 1004.9204,111.95107 86.2515,-0.22162"
     id="path7234" />
  <path
     d="m 392.31253,18.733467 c -3.50868,1.43836 -7.89455,6.301394 -13.333,14.589094 -5.35074,8.21921 -7.7191,14.178134 -9.73659,24.383651 -1.66664,8.767158 -1.66664,15.137045 0.0876,18.904183 1.40347,3.219192 1.5789,3.835633 12.54354,40.000145 11.49093,37.94535 14.82419,55.54816 15.61364,82.19209 l 0.52631,16.43842 -5.96477,1.30138 c -7.01737,1.57533 -10.17518,3.42466 -12.71898,7.67125 -2.36836,3.83563 -2.71923,12.60279 -0.61402,15.7535 1.40347,2.12328 5.26303,5.06849 8.06999,6.30139 1.40346,0.61643 0.78944,0.75342 -3.59642,0.82192 -8.2454,0 -8.2454,0 -8.2454,15.20552 0,11.36991 0.17544,12.80827 1.57891,13.76718 1.49118,1.09589 7.89454,1.16438 73.68235,1.16438 70.96312,0 72.10345,0 73.85779,-1.36986 1.66662,-1.30138 1.75433,-2.26028 1.75433,-13.69869 0,-14.86306 -0.0876,-15.06853 -8.85941,-15.06853 h -5.43846 l 2.54379,-1.57535 c 6.1402,-3.69865 8.24541,-6.98634 8.24541,-12.80828 0,-4.79452 -1.57891,-8.08221 -5.43846,-11.3699 -2.98238,-2.46576 -4.73673,-3.28769 -10.08747,-4.58907 -5.61389,-1.30135 -6.40335,-1.71232 -6.05247,-2.87671 0.26315,-0.75344 0.70172,-3.42466 1.05259,-5.95892 l 0.61403,-4.52058 3.68412,-1.16438 c 11.8418,-3.49316 18.68374,-16.64389 16.22766,-31.096 -1.14033,-7.12331 -4.91216,-15.82198 -8.85943,-21.02747 -3.50869,-4.52057 -7.28052,-8.01375 -24.91166,-23.01379 -25.52566,-21.64391 -25.43795,-21.50693 -25.17479,-24.8631 0.35087,-6.3014 5.96476,-14.520602 11.92953,-17.465827 4.47356,-2.12329 8.2454,-2.328774 19.64861,-1.095892 5.43846,0.616441 12.80671,1.095892 16.4031,1.095892 5.6139,0 6.75421,-0.205473 9.12257,-1.780827 1.75435,-1.164387 3.15782,-3.01372 4.12272,-5.410983 1.22802,-3.287686 1.22802,-3.904128 0,-5.684951 -0.78946,-1.16439 -2.71924,-2.73974 -4.47358,-3.56166 -1.66663,-0.82192 -3.0701,-1.917816 -3.0701,-2.465763 0,-1.095897 3.33325,-3.082205 8.7717,-5.205498 5.43847,-2.191792 6.14021,-4.246592 3.07011,-9.178115 -1.4912,-2.39727 -3.85956,-4.726046 -6.57878,-6.369887 -3.94727,-2.465764 -4.91216,-2.671246 -15.96452,-4.041113 -6.40333,-0.753427 -18.33286,-2.123294 -26.57827,-2.945214 -12.63125,-1.301374 -15.35048,-1.78083 -17.80657,-3.21919 -2.71922,-1.575351 -3.59639,-1.712336 -14.03474,-1.780829 -13.68385,-0.06849 -22.63101,-1.917816 -25.61339,-5.205497 -1.05259,-1.095897 -2.98238,-2.123299 -4.649,-2.397271 -4.12271,-0.753427 -7.63139,-2.260284 -11.7541,-5.205499 -3.1578,-2.260285 -4.29812,-2.671246 -7.45594,-2.671246 -2.10521,0.06849 -4.82444,0.479455 -6.14019,1.095897 z"
     id="path249"
     style="fill:#d1bba3;fill-opacity:1;stroke:#000000;stroke-width:8;stroke-linecap:round;stroke-linejoin:bevel;stroke-dasharray:none;stroke-opacity:1;paint-order:fill markers stroke" />
  <path
     style="fill:#d1bba3;fill-opacity:1;stroke:#000000;stroke-width:8;stroke-linecap:round;stroke-linejoin:bevel;stroke-dasharray:none;stroke-opacity:1;paint-order:fill markers stroke"
     d="m 387.89452,246.47399 124.84365,0.63577"
     id="path3946" />
  <path
     style="fill:#d1bba3;fill-opacity:1;stroke:#000000;stroke-width:8;stroke-linecap:round;stroke-linejoin:bevel;stroke-dasharray:none;stroke-opacity:1;paint-order:fill markers stroke"
     d="m 397.4014,215.86566 102.47902,-0.5994"
     id="path7236" />
  <ellipse
     style="fill:#d1bba3;fill-opacity:1;stroke:#000000;stroke-width:8;stroke-linecap:round;stroke-linejoin:bevel;stroke-dasharray:none;stroke-opacity:1;paint-order:fill markers stroke"
     id="path7621"
     cx="447.38232"
     cy="46.35881"
     rx="5.496254"
     ry="1.7762483" />
  <path
     style="fill:#d1bba3;fill-opacity:1;stroke:#000000;stroke-width:8;stroke-linecap:round;stroke-linejoin:bevel;stroke-dasharray:none;stroke-opacity:1;paint-order:fill markers stroke"
     d="m 114.66742,135.05792 66.03267,0.27578"
     id="path9120" />
  <path
     style="fill:#d1bba3;fill-opacity:1;stroke:#000000;stroke-width:8;stroke-linecap:round;stroke-linejoin:bevel;stroke-dasharray:none;stroke-opacity:1;paint-order:fill markers stroke"
     d="m 116.79131,97.6109 c 20.93373,10.3814 42.72516,7.10982 64.83418,-0.36372"
     id="path9122"
     sodipodi:nodetypes="cc" />
  <path
     d="m 1631.6647,315.26608 c -0.4628,0.33241 -0.6942,2.07755 -0.6942,5.19388 v 4.69527 h -6.5967 c -4.8607,0 -6.7124,0.1662 -7.2332,0.58171 -0.463,0.37396 -0.6366,2.90858 -0.5208,8.18556 l 0.1737,7.64539 7.1174,0.12465 7.0596,0.12466 v 4.11355 4.15511 h -22.8569 c -14.6977,0 -22.8568,0.16621 -22.8568,0.41551 0,0.20776 3.414,8.97502 7.5804,19.40434 4.1662,10.47086 9.1427,23.06084 11.0523,27.96385 1.9673,4.90304 3.7612,9.18279 4.1085,9.4321 0.2892,0.29086 1.5044,0.54017 2.7196,0.54017 h 2.1988 l -0.2892,2.61772 c -3.4311,4.76134 -5.3082,7.01202 -6.2494,11.67584 -0.5209,2.99166 -0.1158,4.07199 2.3146,6.02489 l 2.0253,1.57895 -3.2405,0.2493 c -11.6888,0.87257 -13.8298,11.75896 -3.0089,15.04149 1.273,0.33241 3.8768,0.62326 6.1915,0.62326 3.7034,0 4.1663,0.0832 5.0342,1.03878 4.0507,4.40441 4.5137,17.9085 1.331,35.94167 -3.0669,17.61763 -9.2584,35.98321 -13.8876,41.34329 l -1.8518,2.07756 0.4052,6.93903 0.405,6.93903 -2.1989,0.66481 c -3.0669,0.91412 -5.2079,2.49306 -6.3652,4.73682 -0.5208,1.03877 -1.736,2.90857 -2.604,4.15511 -2.8353,3.90579 -1.9674,8.0609 2.4304,11.34343 l 2.6618,1.99445 h -4.1663 c -2.8354,0 -4.3399,0.16621 -4.8028,0.58171 -0.463,0.41551 -0.5209,3.32408 -0.2314,10.88637 l 0.4629,10.34623 h 57.5759 57.5759 l -0.1156,-10.55398 c -0.1158,-7.93625 -0.3472,-10.67862 -0.8681,-10.92792 -0.405,-0.1662 -2.4304,-0.33241 -4.5135,-0.33241 h -3.7612 l 1.9096,-0.87257 c 3.8769,-1.78669 5.7865,-7.10524 3.8769,-10.76172 -0.5208,-1.03878 -1.1573,-2.70083 -1.3887,-3.73959 -0.5208,-2.20221 -1.7361,-3.98891 -3.6455,-5.27699 -1.5046,-1.03878 -5.0922,-2.20222 -6.7123,-2.20222 -0.9838,0 -1.1574,-0.45705 -1.5046,-3.82269 -0.1736,-2.07755 -0.3473,-5.23543 -0.3473,-7.02212 0,-3.07478 -0.058,-3.24099 -1.9094,-4.57063 -3.6456,-2.61771 -7.6961,-11.38498 -10.2422,-22.1467 -5.3815,-22.64532 -5.0343,-47.49286 0.7522,-54.88895 l 1.3309,-1.66204 5.4393,-0.20776 c 6.018,-0.24931 8.2169,-0.83103 10.5894,-2.90858 2.8933,-2.45151 3.2404,-6.1911 0.8679,-9.05812 -1.4466,-1.70359 -5.3235,-3.32408 -8.8533,-3.6565 -2.6619,-0.29085 -2.7197,-0.29085 -1.5045,-0.95567 2.546,-1.41273 3.5297,-2.99168 3.5297,-5.90026 0,-2.16065 -0.2892,-3.03322 -1.273,-4.11354 -1.2133,-3.92526 -8.6431,-11.2061 -4.3977,-11.21878 0.9258,0 1.7938,-0.29086 2.0831,-0.74792 0.5208,-0.70637 22.6832,-56.09393 22.6832,-56.7172 0,-0.1662 -10.0107,-0.29085 -22.2781,-0.29085 h -22.2781 v -4.15511 -4.1551 h 6.2495 c 4.1083,0 6.4808,-0.16621 6.9437,-0.49862 0.9837,-0.70637 0.9837,-14.91682 0,-15.62319 -0.4629,-0.33241 -2.8354,-0.49861 -6.9437,-0.49861 h -6.2495 v -4.69527 c 0,-3.11633 -0.2315,-4.86147 -0.6944,-5.19388 -0.5208,-0.37396 -4.3979,-0.49862 -13.7719,-0.49862 -9.3742,0 -13.2512,0.12466 -13.7721,0.49862 z"
     id="path114578"
     style="fill:#5a5a5a;fill-opacity:1;stroke:#000000;stroke-width:8;stroke-linecap:round;stroke-linejoin:bevel;stroke-dasharray:none;stroke-opacity:1;paint-order:fill markers stroke"
     sodipodi:nodetypes="sscscccccccsscccscccccccscccccccccccssccccccscccccscscccccccccscccsscccsssscsssss" />
  <path
     d="m 1344.1666,315.38491 c -3.6447,0.89756 -5.6328,1.88487 -7.7536,3.90438 -2.1205,1.97463 -3.6447,5.65462 -2.982,7.40486 l 0.3976,1.07707 h -26.6409 -26.6407 l 0.3978,1.43609 c 1.1928,4.21853 25.5142,60.71983 26.1768,60.76471 0.3976,0.0449 1.9881,0.0898 3.4461,0.13463 2.3856,0.0449 2.6507,0.13464 1.8555,0.76293 -5.5417,9.13865 -5.5949,3.5229 -7.6873,15.12386 -0.3977,3.18634 0.6626,5.20583 3.5785,6.86633 l 1.6568,0.94243 -3.7775,0.26925 c -6.9582,0.49367 -11.5971,3.76978 -11.5971,8.12293 0,2.51317 0.9277,4.17365 3.1809,5.78924 2.9159,2.06439 5.368,2.73757 11.3322,3.00683 5.3681,0.2244 5.6992,0.26927 6.7595,1.57073 6.4282,7.53947 3.0485,40.74914 -6.6932,67.09249 -3.1809,8.61655 -7.2897,15.97654 -9.278,16.82921 -0.4639,0.1795 -0.6625,3.14146 -0.6625,8.39219 l 0.1324,8.07802 -2.5844,0.80781 c -3.0486,0.94243 -6.5609,3.6351 -7.2234,5.56485 -0.2653,0.76292 -1.1932,2.15414 -2.1208,3.09658 -1.3255,1.30146 -1.7893,2.51317 -1.9881,4.6673 -0.3314,3.63511 0.9941,6.19316 4.6388,8.61656 l 2.651,1.84001 h -4.5066 c -2.518,0 -4.9701,0.17949 -5.5002,0.40388 -0.7954,0.31415 -0.8616,2.24389 -0.464,11.53364 0.2651,6.14826 0.729,11.30923 0.9941,11.53363 0.265,0.17952 29.9541,0.26927 66.0715,0.22438 l 65.5414,-0.13464 -0.2651,-11.21947 c -0.1326,-6.59706 -0.4639,-11.44388 -0.8616,-11.80289 -0.3977,-0.31415 -2.2531,-0.53853 -4.6389,-0.53853 h -3.9761 l 2.0543,-1.34635 c 2.8497,-1.97462 4.904,-5.96877 4.4401,-8.66144 -0.1988,-1.21169 -0.7952,-2.78243 -1.3918,-3.54535 -0.5301,-0.76292 -0.9939,-2.01951 -0.9939,-2.73756 0,-2.01949 -2.4519,-5.11607 -5.1028,-6.46241 -1.2591,-0.6732 -3.6449,-1.43611 -5.368,-1.70536 l -3.1147,-0.53854 -0.1988,-7.31511 -0.1987,-7.35996 -2.5846,-1.92976 c -1.3918,-1.07708 -2.9823,-2.82733 -3.5124,-3.85951 -0.5964,-1.03219 -1.7893,-3.36584 -2.7171,-5.16096 -4.8378,-9.11022 -8.6152,-26.97162 -9.4766,-44.07012 -0.5965,-13.91217 1.2591,-24.86237 5.1691,-29.6643 l 1.5905,-1.97462 6.2957,-0.2244 c 6.5607,-0.26926 9.0789,-0.85269 11.7299,-2.78244 1.9879,-1.43608 2.8496,-3.18633 2.8496,-5.92389 0,-4.2185 -4.639,-7.53948 -11.5973,-8.16779 l -3.0484,-0.31413 2.0544,-1.43611 c 2.5182,-1.75021 3.4459,-3.85948 2.9158,-6.73168 -1.2541,-8.48369 -10.3485,-15.43596 -7.6873,-15.57264 2.9821,-0.0898 3.3134,-0.13463 3.7773,-0.4039 0.6628,-0.49366 26.1105,-61.16861 25.7793,-61.52763 -0.1989,-0.17951 -11.9288,-0.35902 -26.0444,-0.35902 h -25.7127 l -0.067,-2.42341 c -0.067,-7.22535 -10.868,-12.34143 -20.8086,-9.9629 z"
     id="path114580"
     style="fill:#5a5a5a;fill-opacity:1;stroke:#000000;stroke-width:8;stroke-linecap:round;stroke-linejoin:bevel;stroke-dasharray:none;stroke-opacity:1;paint-order:fill markers stroke"
     sodipodi:nodetypes="scccccccccccccscccccccccccccscccccccsccccscccccccccccccscccccccsccss" />
  <path
     d="m 744.35071,315.65445 c -7.11111,0.95502 -14.00675,4.27242 -18.17285,8.59511 -3.87881,4.1719 -5.02809,7.28825 -4.66893,12.66648 0.28733,4.82533 1.65208,7.74063 5.31537,11.40989 l 1.72392,1.75923 -2.94499,2.26187 c -12.42652,9.34906 -18.81934,22.71924 -18.81934,39.40683 0,11.5104 2.51405,20.05526 8.7632,29.65563 2.08304,3.16662 2.22671,3.56874 1.07744,4.02111 -3.08867,1.30686 -4.88441,2.56345 -5.74637,4.07136 -1.29291,2.16134 -1.29291,7.38879 0,9.19828 1.00563,1.35713 1.00563,1.4074 -1.36475,2.01057 -1.29292,0.30157 -3.37599,1.35711 -4.52526,2.26186 -4.45343,3.56872 -3.44783,11.30937 1.72392,13.72202 l 2.01122,0.90474 -4.45343,0.30159 c -7.61393,0.50265 -12.06737,3.51847 -12.92931,8.79616 -0.43098,2.96557 0.93379,5.4285 4.23793,7.38879 3.44782,2.11107 6.96747,2.86504 13.07297,2.86504 4.45345,0 4.81257,0.10046 6.32101,1.55817 1.93938,1.91003 3.51964,5.52903 3.51964,8.09247 0,5.32796 -6.10551,12.86753 -15.80249,19.55263 l -6.24917,4.27242 0.35915,8.54485 0.35915,8.59511 -3.37599,1.1058 c -3.73512,1.30686 -6.24915,3.36767 -7.68575,6.33325 -0.57464,1.1058 -1.58024,2.56345 -2.22671,3.26713 -0.7183,0.7037 -1.65208,2.56345 -2.15489,4.12164 -1.22109,3.97085 0.50281,7.84116 4.81257,10.85697 l 3.01684,2.11109 h -5.24355 c -3.08866,0 -5.45903,0.25133 -5.74637,0.5529 -0.57462,0.65343 -0.35913,24.32768 0.2155,25.38322 0.28732,0.60316 10.41527,0.70369 71.61399,0.60316 l 71.18301,-0.15079 v -12.71674 c 0,-10.75644 -0.14366,-12.767 -1.07745,-13.16912 -0.57462,-0.2513 -3.08866,-0.50263 -5.60267,-0.50263 h -4.52528 l 2.65769,-1.60844 c 1.50842,-0.90475 3.23234,-2.56346 3.95062,-3.66926 1.58026,-2.41267 1.72391,-6.73535 0.28732,-9.55012 -0.57463,-1.10582 -1.07744,-2.36241 -1.07744,-2.7645 -0.0718,-4.52375 -7.32662,-10.05278 -13.14479,-10.05278 h -1.7239 l -0.43099,-8.64536 -0.43098,-8.64538 -2.01122,-1.00528 c -3.87881,-1.96028 -10.9899,-6.98665 -13.07296,-9.29879 -6.24917,-6.83587 -5.67453,-16.63733 1.22109,-21.8145 1.65208,-1.2566 2.29854,-1.35712 7.0393,-1.35712 8.61953,0 13.50395,-1.75924 16.16162,-5.78034 1.65207,-2.46293 1.72392,-4.7248 0.28733,-7.18773 -2.22673,-3.66925 -7.32662,-6.13218 -12.64199,-6.13218 h -2.94501 l 2.22673,-1.45765 c 2.87315,-1.91003 3.66327,-3.46819 3.66327,-7.38878 0,-4.77506 -2.7295,-7.69037 -7.97305,-8.49458 -1.72391,-0.25132 -2.08305,-0.50264 -1.65207,-1.15606 0.35914,-0.50265 0.71828,-2.91532 0.86193,-5.42852 l 0.2155,-4.57399 -2.37038,-1.75925 c -1.29293,-0.95499 -2.80134,-1.85974 -3.30415,-1.96027 -0.64646,-0.15079 -0.14366,-1.35712 1.65208,-4.37293 2.65769,-4.42324 4.66892,-9.60042 6.10549,-15.43102 1.14928,-4.97611 1.00563,-17.69285 -0.2873,-22.87002 -0.64647,-2.3624 -1.14927,-4.57401 -1.14927,-4.92586 0,-0.30158 -0.21551,-0.60317 -0.50281,-0.60317 -0.35916,0 -4.27957,5.58182 -10.74423,10.70873 -6.53648,5.1269 -9.84825,10.94369 -13.82144,7.88888 -0.53973,-0.41497 -10.57025,-7.4265 -8.69139,-5.52901 0.18803,0.18991 2.97536,-10.69871 12.21862,-15.05154 l 13.63251,-11.07436 0.65397,-0.11181 c -2.65771,-3.66926 -6.60832,-7.84115 -10.12796,-10.65592 l -2.51405,-2.01056 2.51405,-2.26186 c 4.6689,-4.32269 5.45903,-6.18245 5.53086,-12.61623 0,-5.47875 -0.14368,-5.93112 -2.29855,-9.09774 -6.24915,-8.89669 -20.25589,-13.82255 -33.97533,-11.96279 z"
     id="path114582"
     style="fill:#5a5a5a;fill-opacity:1;stroke:#000000;stroke-width:8;stroke-linecap:round;stroke-linejoin:bevel;stroke-dasharray:none;stroke-opacity:1;paint-order:normal"
     sodipodi:nodetypes="ccccccscccccccccccscsccccccccscsccccscscccccsccccccsccsccscccccccccsscsscccsccccc" />
  <path
     id="path114584"
     style="fill:#5a5a5a;fill-opacity:1;stroke:#000000;stroke-width:8;stroke-linecap:round;stroke-linejoin:bevel;stroke-dasharray:none;stroke-opacity:1;paint-order:fill markers stroke"
     d="m 1049.421,319.71622 c -4.8354,0 -7.5422,0.25469 -11.6936,0.25713 l -0.1615,17.09167 -27.1576,0.0786 0.091,-16.78892 c -17.81315,0.12335 -26.41057,-0.14105 -27.40771,0.50718 -1.54259,1.00274 -1.76342,4.44021 -1.54303,29.50872 l 0.33132,28.43575 3.41533,1.14571 3.52514,1.07436 -2.09188,1.79062 c -3.52595,2.86497 -5.73082,9.02497 -5.17991,13.89543 0.99156,7.37731 6.50085,12.46268 16.52775,15.39926 l 5.17999,1.50384 -2.0939,2.29141 c -3.96671,4.22585 -2.09393,12.60704 3.4152,15.11389 1.9832,0.85949 1.9837,1.36034 -1.2117,14.8257 -7.71293,32.23095 -16.08789,53.35998 -27.32663,68.83085 -2.31383,3.29471 -4.62786,6.80433 -4.9583,7.87866 -0.44072,1.00276 -2.64364,2.65099 -5.17792,3.72534 -3.21232,3.5322 -3.88272,4.41028 -4.27503,7.17106 0.18299,1.9175 -1.07247,5.66492 0.91668,7.00956 1.70866,3.52267 4.459,5.73012 8.0951,8.23699 l 2.20375,1.64792 h -6.16991 c -9.58612,0 -9.47548,-0.21543 -9.47548,16.97443 0,8.1652 0.55091,15.39926 1.10183,16.11551 0.99154,1.2176 5.17791,1.28979 89.46911,1.28979 67.3228,0 88.8092,-0.21571 89.8008,-0.86034 1.873,-1.21762 1.873,-31.44286 0,-32.66048 -0.7714,-0.50134 -3.3053,-0.85892 -5.6191,-0.85892 h -4.2977 l 2.7545,-2.14871 c 4.628,-3.50961 6.6111,-8.02251 6.0602,-13.10786 -0.6612,-5.08533 -2.533,-7.95001 -7.4912,-11.17314 l -3.5272,-2.22006 h 2.8665 c 1.5425,0 2.8643,-0.0722 2.8643,-0.21542 0,-0.14327 -3.3068,-3.43721 -7.3835,-7.37647 -8.5945,-8.38007 -11.4588,-12.39136 -18.2903,-25.35537 -10.0267,-19.1237 -17.2982,-41.2557 -17.2982,-52.64399 0,-3.58119 0.3302,-4.44128 2.3135,-5.22915 4.9584,-2.00545 7.1625,-10.59986 3.7466,-14.46757 -2.3139,-2.57846 -2.0947,-2.72257 3.084,-3.72531 7.162,-1.36084 15.5375,-7.16189 17.3003,-11.96074 2.0934,-5.87319 0.9907,-12.31912 -3.0861,-16.54497 l -3.3055,-3.43853 3.8564,-0.35812 c 7.2721,-0.78787 6.9425,0.71702 6.9425,-30.2963 l -0.4059,-29.66172 2.5265,0.0808 c -25.5847,-0.3825 -13.1919,-0.26714 -28.5363,-0.26381 l 0.175,16.28526 -26.1007,0.1111 -0.167,-16.84991 c -4.911,-0.004 -11.2109,-0.0708 -17.1292,-0.0708 z"
     sodipodi:nodetypes="sccccsccccccccccccccccccsscsssscccccssccscccccccsccccccss" />
  <path
     d="m 139.97969,331.31462 c -19.06321,3.43691 -32.77368,15.18633 -36.81169,31.41173 -3.00505,12.30892 1.1269,24.61784 11.73842,34.28915 l 4.13191,3.75663 -3.75628,0.79926 c -8.92121,2.07813 -15.21298,8.55232 -17.56067,18.14367 -1.69034,6.71397 -1.78423,15.66591 -0.28173,16.94474 0.75126,0.63945 4.41365,0.95916 10.32981,0.95916 h 9.20293 l -0.46955,2.15806 c -0.18782,1.27883 -0.65735,4.63583 -0.93907,7.51323 -1.3147,13.1082 -9.67245,27.41533 -23.1012,39.40453 -5.822258,5.27526 -9.229798,6.63018 -11.445359,8.34314 -7.939734,6.13859 -7.968181,7.67658 -9.940978,13.24444 0.652837,5.04744 -0.07162,15.4873 5.42208,16.85782 3.380673,0.63943 3.944109,1.9982 0.751265,1.9982 -4.038014,0 -4.413648,1.11899 -4.413648,14.86662 0,10.71036 0.281721,13.18813 1.502515,14.2272 1.314707,1.11899 9.0151,1.27884 71.275675,1.27884 62.26056,0 69.96093,-0.15985 71.27566,-1.27884 1.22078,-1.03907 1.50252,-3.51684 1.50252,-14.2272 0,-13.42791 -0.37564,-14.86662 -4.03803,-14.86662 -0.93907,0 -1.59642,-0.23978 -1.40861,-0.63941 2.81722,-4.63584 3.94412,-7.91288 4.31974,-12.94835 0.56345,-8.47237 -0.75126,-11.98922 -6.1979,-16.14547 -13.05309,-10.07093 -20.7535,-17.9039 -25.9184,-26.7759 -5.16491,-8.79209 -6.3857,-13.18812 -6.57351,-23.65871 l -0.18781,-9.35158 h 10.98716 c 8.63947,0 11.17494,-0.2398 12.11402,-1.19894 1.78424,-1.83833 0.56346,-15.74582 -1.78423,-21.26086 -3.38066,-7.67309 -9.76635,-12.54871 -18.12411,-13.90748 l -3.38067,-0.5595 4.03802,-3.59675 c 19.81445,-17.58418 15.49472,-46.83786 -8.82729,-60.18584 -9.109,-4.87562 -23.85246,-7.43331 -33.43099,-5.59497 z"
     id="path114586"
     style="fill:#5a5a5a;fill-opacity:1;stroke:#000000;stroke-width:8;stroke-linecap:round;stroke-linejoin:bevel;stroke-dasharray:none;stroke-opacity:1;paint-order:fill markers stroke"
     sodipodi:nodetypes="ccccccssccccsccsssssssccccccsccccccc" />
  <path
     style="fill:#5a5a5a;fill-opacity:1;stroke:#000000;stroke-width:8;stroke-linecap:round;stroke-linejoin:bevel;stroke-dasharray:none;stroke-opacity:1;paint-order:fill markers stroke"
     d="m 80.151842,526.12453 132.105198,0.87435 h -0.41089"
     id="path114588" />
  <path
     style="fill:#5a5a5a;fill-opacity:1;stroke:#000000;stroke-width:8;stroke-linecap:round;stroke-linejoin:bevel;stroke-dasharray:none;stroke-opacity:1;paint-order:fill markers stroke"
     d="m 970.79414,550.01916 158.13746,0.31343"
     id="path114590" />
  <path
     style="fill:#5a5a5a;fill-opacity:1;stroke:#000000;stroke-width:8;stroke-linecap:round;stroke-linejoin:bevel;stroke-dasharray:none;stroke-opacity:1;paint-order:fill markers stroke"
     d="m 688.59391,555.22661 122.10493,0.43987"
     id="path114592" />
  <path
     style="fill:#5a5a5a;fill-opacity:1;stroke:#000000;stroke-width:8;stroke-linecap:round;stroke-linejoin:bevel;stroke-dasharray:none;stroke-opacity:1;paint-order:fill markers stroke"
     d="m 1288.0856,557.23981 122.3992,0.19621"
     id="path114594" />
  <path
     style="fill:#5a5a5a;fill-opacity:1;stroke:#000000;stroke-width:8;stroke-linecap:round;stroke-linejoin:bevel;stroke-dasharray:none;stroke-opacity:1;paint-order:fill markers stroke"
     d="m 1595.8021,562.8058 97.9869,0.1818"
     id="path114596" />
  <path
     style="fill:#5a5a5a;fill-opacity:1;stroke:#000000;stroke-width:8;stroke-linecap:round;stroke-linejoin:bevel;stroke-dasharray:none;stroke-opacity:1;paint-order:fill markers stroke"
     d="m 986.22225,379.92062 125.11175,0.39175"
     id="path114598" />
  <path
     style="fill:#5a5a5a;fill-opacity:1;stroke:#000000;stroke-width:8;stroke-linecap:round;stroke-linejoin:bevel;stroke-dasharray:none;stroke-opacity:1;paint-order:fill markers stroke"
     d="m 1613.779,445.62825 63.1726,0.18182"
     id="path114600" />
  <path
     style="fill:#5a5a5a;fill-opacity:1;stroke:#000000;stroke-width:8;stroke-linecap:round;stroke-linejoin:bevel;stroke-dasharray:none;stroke-opacity:1;paint-order:fill markers stroke"
     d="m 1610.4875,429.81064 h 69.7555"
     id="path114602" />
  <path
     style="fill:#5a5a5a;fill-opacity:1;stroke:#000000;stroke-width:8;stroke-linecap:round;stroke-linejoin:bevel;stroke-dasharray:none;stroke-opacity:1;paint-order:fill markers stroke"
     d="m 1612.934,407.78181 66.7614,-0.0772"
     id="path114604" />
  <path
     style="fill:#5a5a5a;fill-opacity:1;stroke:#000000;stroke-width:8;stroke-linecap:round;stroke-linejoin:bevel;stroke-dasharray:none;stroke-opacity:1;paint-order:fill markers stroke"
     d="m 1307.5042,389.95584 84.0318,0.19944"
     id="path114606" />
  <path
     style="fill:#5a5a5a;fill-opacity:1;stroke:#000000;stroke-width:8;stroke-linecap:round;stroke-linejoin:bevel;stroke-dasharray:none;stroke-opacity:1;paint-order:fill markers stroke"
     d="m 1329.2151,327.81173 c 12.7089,0.28313 28.1187,0.23767 41.9426,0.18872"
     id="path114608"
     sodipodi:nodetypes="cc" />
  <path
     style="fill:#5a5a5a;fill-opacity:1;stroke:#000000;stroke-width:8;stroke-linecap:round;stroke-linejoin:bevel;stroke-dasharray:none;stroke-opacity:1;paint-order:fill markers stroke"
     d="m 1627.0427,350.01997 37.2781,0.0871"
     id="path114610" />
  <path
     style="fill:#5a5a5a;fill-opacity:1;stroke:#000000;stroke-width:8;stroke-linecap:round;stroke-linejoin:bevel;stroke-dasharray:none;stroke-opacity:1;paint-order:fill markers stroke"
     d="m 1310.2844,431.25541 81.9551,-0.26365"
     id="path114612" />
  <path
     style="fill:#5a5a5a;fill-opacity:1;stroke:#000000;stroke-width:8;stroke-linecap:round;stroke-linejoin:bevel;stroke-dasharray:none;stroke-opacity:1;paint-order:fill markers stroke"
     d="m 1306.4088,413.60723 88.7266,0.41624"
     id="path114614" />
  <path
     style="fill:#5a5a5a;fill-opacity:1;stroke:#000000;stroke-width:8;stroke-linecap:round;stroke-linejoin:bevel;stroke-dasharray:none;stroke-opacity:1;paint-order:fill markers stroke"
     d="m 711.5377,477.36953 82.34616,-0.54982"
     id="path114616" />
  <path
     style="fill:#5a5a5a;fill-opacity:1;stroke:#000000;stroke-width:8;stroke-linecap:round;stroke-linejoin:bevel;stroke-dasharray:none;stroke-opacity:1;paint-order:fill markers stroke"
     d="m 707.13751,457.1355 88.00356,0.65981"
     id="path114618" />
  <path
     style="fill:#5a5a5a;fill-opacity:1;stroke:#000000;stroke-width:8;stroke-linecap:round;stroke-linejoin:bevel;stroke-dasharray:none;stroke-opacity:1;paint-order:fill markers stroke"
     d="m 711.06625,439.98056 80.77467,0.10996"
     id="path114620" />
  <path
     style="fill:#5a5a5a;fill-opacity:1;stroke:#000000;stroke-width:8;stroke-linecap:round;stroke-linejoin:bevel;stroke-dasharray:none;stroke-opacity:1;paint-order:fill markers stroke"
     d="m 717.50937,424.91499 67.7313,0.3299"
     id="path114622" />
  <path
     style="fill:#5a5a5a;fill-opacity:1;stroke:#000000;stroke-width:8;stroke-linecap:round;stroke-linejoin:bevel;stroke-dasharray:none;stroke-opacity:1;paint-order:fill markers stroke"
     d="m 728.1955,350.02704 c 15.78052,4.90369 30.99707,4.18908 45.59234,0.44541"
     id="path114624"
     sodipodi:nodetypes="cc" />
  <path
     style="fill:#5a5a5a;fill-opacity:1;stroke:#000000;stroke-width:8;stroke-linecap:round;stroke-linejoin:bevel;stroke-dasharray:none;stroke-opacity:1;paint-order:fill markers stroke"
     d="m 698.10914,527.47497 102.00931,-0.31101"
     id="path114626" />
  <path
     style="fill:#5a5a5a;fill-opacity:1;stroke:#000000;stroke-width:8;stroke-linecap:round;stroke-linejoin:bevel;stroke-dasharray:none;stroke-opacity:1;paint-order:fill markers stroke"
     d="m 696.99793,510.36804 101.34258,0.31104"
     id="path114628" />
  <path
     style="fill:#5a5a5a;fill-opacity:1;stroke:#000000;stroke-width:8;stroke-linecap:round;stroke-linejoin:bevel;stroke-dasharray:none;stroke-opacity:1;paint-order:fill markers stroke"
     d="m 1296.0664,532.71837 h 102.9882"
     id="path114630" />
  <path
     style="fill:#5a5a5a;fill-opacity:1;stroke:#000000;stroke-width:8;stroke-linecap:round;stroke-linejoin:bevel;stroke-dasharray:none;stroke-opacity:1;paint-order:fill markers stroke"
     d="m 1298.2437,516.90163 99.2866,0.69373"
     id="path114632" />
  <path
     style="fill:#5a5a5a;fill-opacity:1;stroke:#000000;stroke-width:8;stroke-linecap:round;stroke-linejoin:bevel;stroke-dasharray:none;stroke-opacity:1;paint-order:fill markers stroke"
     d="m 1602.0054,540.17026 83.5548,0.18181"
     id="path114634" />
  <path
     style="fill:#5a5a5a;fill-opacity:1;stroke:#000000;stroke-width:8;stroke-linecap:round;stroke-linejoin:bevel;stroke-dasharray:none;stroke-opacity:1;paint-order:fill markers stroke"
     d="m 1601.8787,526.17077 82.4155,-0.27271"
     id="path114636" />
  <path
     style="fill:#5a5a5a;fill-opacity:1;stroke:#000000;stroke-width:8;stroke-linecap:round;stroke-linejoin:bevel;stroke-dasharray:none;stroke-opacity:1;paint-order:fill markers stroke"
     d="m 971.1697,523.6471 154.0937,-0.66479"
     id="path114638" />
  <path
     style="fill:#5a5a5a;fill-opacity:1;stroke:#000000;stroke-width:8;stroke-linecap:round;stroke-linejoin:bevel;stroke-dasharray:none;stroke-opacity:1;paint-order:fill markers stroke"
     d="m 1006.2839,432.56615 h 81.1378 z"
     id="path114640" />
  <path
     style="fill:#5a5a5a;fill-opacity:1;stroke:#000000;stroke-width:8;stroke-linecap:round;stroke-linejoin:bevel;stroke-dasharray:none;stroke-opacity:1;paint-order:fill markers stroke"
     d="m 1004.9204,413.95107 86.2515,-0.22162"
     id="path114642" />
  <path
     d="m 392.31253,320.73347 c -3.50868,1.43836 -7.89455,6.30139 -13.333,14.58909 -5.35074,8.21921 -7.7191,14.17814 -9.73659,24.38365 -1.66664,8.76716 -1.66664,15.13705 0.0876,18.90418 1.40347,3.2192 1.5789,3.83564 12.54354,40.00015 11.49093,37.94535 14.82419,55.54816 15.61364,82.19209 l 0.52631,16.43842 -5.96477,1.30138 c -7.01737,1.57533 -10.17518,3.42466 -12.71898,7.67125 -2.36836,3.83563 -2.71923,12.60279 -0.61402,15.7535 1.40347,2.12328 5.26303,5.06849 8.06999,6.30139 1.40346,0.61643 0.78944,0.75342 -3.59642,0.82192 -8.2454,0 -8.2454,0 -8.2454,15.20552 0,11.36991 0.17544,12.80827 1.57891,13.76718 1.49118,1.09589 7.89454,1.16438 73.68235,1.16438 70.96312,0 72.10345,0 73.85779,-1.36986 1.66662,-1.30138 1.75433,-2.26028 1.75433,-13.69869 0,-14.86306 -0.0876,-15.06853 -8.85941,-15.06853 h -5.43846 l 2.54379,-1.57535 c 6.1402,-3.69865 8.24541,-6.98634 8.24541,-12.80828 0,-4.79452 -1.57891,-8.08221 -5.43846,-11.3699 -2.98238,-2.46576 -4.73673,-3.28769 -10.08747,-4.58907 -5.61389,-1.30135 -6.40335,-1.71232 -6.05247,-2.87671 0.26315,-0.75344 0.70172,-3.42466 1.05259,-5.95892 l 0.61403,-4.52058 3.68412,-1.16438 c 11.8418,-3.49316 18.68374,-16.64389 16.22766,-31.096 -1.14033,-7.12331 -4.91216,-15.82198 -8.85943,-21.02747 -3.50869,-4.52057 -7.28052,-8.01375 -24.91166,-23.01379 -25.52566,-21.64391 -25.43795,-21.50693 -25.17479,-24.8631 0.35087,-6.3014 5.96476,-14.5206 11.92953,-17.46583 4.47356,-2.12329 8.2454,-2.32877 19.64861,-1.09589 5.43846,0.61644 12.80671,1.09589 16.4031,1.09589 5.6139,0 6.75421,-0.20547 9.12257,-1.78082 1.75435,-1.16439 3.15782,-3.01372 4.12272,-5.41099 1.22802,-3.28768 1.22802,-3.90413 0,-5.68495 -0.78946,-1.16439 -2.71924,-2.73974 -4.47358,-3.56166 -1.66663,-0.82192 -3.0701,-1.91781 -3.0701,-2.46576 0,-1.0959 3.33325,-3.08221 8.7717,-5.2055 5.43847,-2.19179 6.14021,-4.24659 3.07011,-9.17811 -1.4912,-2.39727 -3.85956,-4.72605 -6.57878,-6.36989 -3.94727,-2.46577 -4.91216,-2.67125 -15.96452,-4.04111 -6.40333,-0.75343 -18.33286,-2.1233 -26.57827,-2.94522 -12.63125,-1.30137 -15.35048,-1.78083 -17.80657,-3.21919 -2.71922,-1.57535 -3.59639,-1.71233 -14.03474,-1.78083 -13.68385,-0.0685 -22.63101,-1.91781 -25.61339,-5.20549 -1.05259,-1.0959 -2.98238,-2.1233 -4.649,-2.39728 -4.12271,-0.75342 -7.63139,-2.26028 -11.7541,-5.20549 -3.1578,-2.26029 -4.29812,-2.67125 -7.45594,-2.67125 -2.10521,0.0685 -4.82444,0.47945 -6.14019,1.0959 z"
     id="path114644"
     style="fill:#5a5a5a;fill-opacity:1;stroke:#000000;stroke-width:8;stroke-linecap:round;stroke-linejoin:bevel;stroke-dasharray:none;stroke-opacity:1;paint-order:fill markers stroke" />
  <path
     style="fill:#5a5a5a;fill-opacity:1;stroke:#000000;stroke-width:8;stroke-linecap:round;stroke-linejoin:bevel;stroke-dasharray:none;stroke-opacity:1;paint-order:fill markers stroke"
     d="m 387.89452,548.47399 124.84365,0.63577"
     id="path114646" />
  <path
     style="fill:#5a5a5a;fill-opacity:1;stroke:#000000;stroke-width:8;stroke-linecap:round;stroke-linejoin:bevel;stroke-dasharray:none;stroke-opacity:1;paint-order:fill markers stroke"
     d="m 397.4014,517.86566 102.47902,-0.5994"
     id="path114648" />
  <ellipse
     style="fill:#5a5a5a;fill-opacity:1;stroke:#000000;stroke-width:8;stroke-linecap:round;stroke-linejoin:bevel;stroke-dasharray:none;stroke-opacity:1;paint-order:fill markers stroke"
     id="ellipse114650"
     cx="447.38232"
     cy="348.35883"
     rx="5.496254"
     ry="1.7762483" />
  <path
     style="fill:#5a5a5a;fill-opacity:1;stroke:#000000;stroke-width:8;stroke-linecap:round;stroke-linejoin:bevel;stroke-dasharray:none;stroke-opacity:1;paint-order:fill markers stroke"
     d="m 114.66742,437.05792 66.03267,0.27578"
     id="path114652" />
  <path
     style="fill:#5a5a5a;fill-opacity:1;stroke:#000000;stroke-width:8;stroke-linecap:round;stroke-linejoin:bevel;stroke-dasharray:none;stroke-opacity:1;paint-order:fill markers stroke"
     d="m 116.79131,399.6109 c 20.93373,10.3814 42.72516,7.10982 64.83418,-0.36372"
     id="path114654"
     sodipodi:nodetypes="cc" />
</svg>
